<?xml version="1.0" encoding="utf-8"?>
<!-- Generator: Adobe Illustrator 22.0.1, SVG Export Plug-In . SVG Version: 6.00 Build 0)  -->
<svg version="1.1" id="Layer_1" xmlns="http://www.w3.org/2000/svg" xmlns:xlink="http://www.w3.org/1999/xlink" x="0px" y="0px"
	 width="250.1px" height="250.09px" viewBox="0 0 250.1 250.09" style="enable-background:new 0 0 250.1 250.09;"
	 xml:space="preserve">
<path style="fill:#FFFFFF;" d="M125.04,0.97C56.63,0.97,0.97,56.63,0.97,125.05c0,68.41,55.65,124.06,124.07,124.06
	c68.42,0,124.08-55.65,124.08-124.06C249.12,56.63,193.46,0.97,125.04,0.97"/>
<path style="fill:#003366;" d="M125.04,250.04c-33.39,0-64.78-13-88.38-36.61c-23.61-23.61-36.61-54.99-36.61-88.38
	c0-33.39,13-64.78,36.61-88.39c23.61-23.61,55-36.61,88.38-36.61c33.39,0,64.78,13,88.39,36.61c23.61,23.61,36.62,55,36.62,88.39
	c0,33.38-13.01,64.77-36.62,88.38C189.82,237.03,158.43,250.04,125.04,250.04 M125.04,1.66C57,1.66,1.66,57.01,1.66,125.05
	c0,68.03,55.35,123.38,123.39,123.38c68.05,0,123.4-55.35,123.4-123.38C248.44,57.01,193.09,1.66,125.04,1.66"/>
<path style="fill:#003366;" d="M125.04,244.76c-31.98,0-62.04-12.45-84.65-35.06c-22.61-22.61-35.06-52.67-35.06-84.65
	c0-31.98,12.45-62.05,35.06-84.66C63,17.78,93.06,5.32,125.04,5.32c31.98,0,62.05,12.45,84.67,35.07
	c22.61,22.61,35.07,52.68,35.07,84.66c0,31.98-12.46,62.04-35.07,84.65C187.09,232.31,157.02,244.76,125.04,244.76 M125.04,6.03
	C59.42,6.03,6.03,59.42,6.03,125.05c0,65.62,53.39,119.01,119.01,119.01c65.63,0,119.03-53.39,119.03-119.01
	C244.07,59.42,190.67,6.03,125.04,6.03"/>
<path style="fill:#003366;" d="M27.06,132.85l-3.18,0.45l-0.32,0.04l-0.14-0.04c-0.08-0.04-0.12-0.12-0.12-0.21
	c-0.01-0.11,0.17-0.28,0.55-0.5c2.88-1.71,4.33-4.03,4.34-6.98c0.02-2.35-0.67-4.21-2.04-5.57c-1.36-1.36-3.24-2.05-5.62-2.06
	c-2.73-0.01-4.98,0.73-6.72,2.24c-1.74,1.5-2.62,3.44-2.63,5.8c0,1.38,0.34,2.75,1.03,4.09c0.69,1.34,1.54,2.27,2.53,2.79
	c0.46,0.24,0.69,0.42,0.7,0.54c0.01,0.14-0.08,0.21-0.25,0.21l-0.15-0.02l-0.27-0.05l-1.63-0.34l-0.23-0.06
	c-0.23-0.04-0.46-0.26-0.69-0.66c-1.27-2.12-1.89-4.47-1.88-7.02c0.02-2.97,0.86-5.35,2.54-7.16c1.68-1.8,3.89-2.7,6.63-2.68
	c2.73,0.01,5,0.96,6.81,2.85c1.8,1.89,2.7,4.25,2.68,7.09c-0.01,1.95-0.44,3.72-1.28,5.36l-0.28,0.55l-0.1,0.22l-0.08,0.24
	c0,0.04,0.04,0.11,0.11,0.2c0.13,0.2,0.2,0.34,0.2,0.41C27.56,132.72,27.38,132.82,27.06,132.85 M30.99,144.61
	c-0.28-1.36-0.8-2.64-1.55-3.85c-0.75-1.19-1.63-2.13-2.63-2.81c-0.95-0.64-2.06-1.08-3.32-1.32c-1.26-0.23-2.48-0.23-3.66,0.01
	c-2.74,0.56-4.76,1.91-6.07,4.06c-1.31,2.14-1.66,4.67-1.07,7.59c0.59,2.84,1.94,4.99,4.07,6.46c2.13,1.45,4.58,1.91,7.33,1.34
	c2.6-0.53,4.54-1.87,5.83-4.03C31.21,149.93,31.56,147.44,30.99,144.61 M29.97,143.91c0.51,2.45,0.07,4.66-1.31,6.65
	c-1.37,1.99-3.35,3.25-5.91,3.77c-2.24,0.47-4.22,0.16-5.96-0.91c-1.73-1.07-2.81-2.65-3.25-4.74c-0.48-2.3,0.02-4.42,1.48-6.36
	c1.46-1.95,3.49-3.19,6.1-3.72c2.27-0.48,4.21-0.23,5.8,0.73C28.53,140.28,29.54,141.82,29.97,143.91 M28.09,176.42l-1.95,0.95
	c-0.72,0.33-1.26,0.47-1.63,0.44c-0.36-0.03-0.72-0.26-1.07-0.7c-0.15-0.19-0.28-0.25-0.41-0.19c-0.12,0.05-0.13,0.2-0.03,0.44
	c0.06,0.13,0.32,0.61,0.77,1.45c0.28,0.54,0.48,0.94,0.6,1.19c0.17,0.37,0.32,0.73,0.44,1.06l0.35,1.01
	c0.05,0.12,0.09,0.23,0.13,0.31c0.14,0.31,0.28,0.43,0.41,0.37c0.14-0.06,0.14-0.33,0-0.79c-0.2-0.65-0.22-1.16-0.05-1.52
	c0.16-0.35,0.55-0.67,1.16-0.95l1.49-0.75l6.44-3.22l2.87-1.4c0.93-0.42,1.64-0.64,2.12-0.65c0.48-0.01,0.87,0.18,1.16,0.56
	l0.38,0.48c0.12,0.15,0.25,0.19,0.39,0.13c0.16-0.07,0.2-0.19,0.11-0.35c-0.06-0.09-0.13-0.21-0.21-0.35
	c-0.22-0.29-0.44-0.7-0.68-1.24c-0.08-0.16-0.13-0.31-0.17-0.42c-0.09-0.33-0.15-0.53-0.18-0.59c-0.07-0.16-0.16-0.25-0.26-0.28
	c-0.1-0.04-0.32-0.05-0.63-0.05l-14.73-0.38h-0.29h-0.4c-0.18-0.01-0.29-0.03-0.31-0.09c-0.02-0.04,0.05-0.15,0.22-0.34l0.94-1.21
	l8.4-10.16l0.22-0.26c0.39-0.48,0.51-0.88,0.34-1.24c-0.05-0.13-0.13-0.27-0.24-0.45c-0.1-0.18-0.3-0.61-0.61-1.28
	c-0.2-0.45-0.32-0.73-0.36-0.87c-0.08-0.21-0.14-0.35-0.17-0.42c-0.09-0.21-0.23-0.27-0.39-0.2c-0.15,0.07-0.19,0.24-0.12,0.51
	c0.25,0.99,0.14,1.83-0.37,2.54c-0.5,0.7-1.46,1.37-2.88,2.02c-0.66,0.31-2.28,0.96-4.86,1.99l-3.55,1.41
	c-1,0.4-1.77,0.57-2.29,0.51c-0.51-0.05-0.99-0.36-1.4-0.9c-0.13-0.18-0.26-0.24-0.4-0.18c-0.16,0.08-0.19,0.23-0.07,0.49
	c0.04,0.09,0.11,0.21,0.21,0.37c0.32,0.53,0.62,1.09,0.9,1.7c0.23,0.51,0.52,1.24,0.87,2.21c0.05,0.15,0.11,0.31,0.19,0.47
	c0.11,0.23,0.25,0.32,0.41,0.25c0.15-0.06,0.15-0.38-0.01-0.92c-0.33-1.11,0.21-1.99,1.61-2.62c1.47-0.67,2.45-1.1,2.94-1.3
	l6.06-2.41l-7.55,9.15l-0.38,0.48c-0.28,0.37-0.45,0.59-0.5,0.66c-0.31,0.36-0.42,0.64-0.33,0.83c0.08,0.18,0.35,0.28,0.8,0.26
	c0.1,0.01,0.29,0.02,0.55,0.02c0.45,0.03,1.01,0.05,1.68,0.07c1.65,0.02,2.56,0.03,2.73,0.05l3.1,0.15l2.81,0.09
	c0.57,0.02,1.61,0.12,3.12,0.29L28.09,176.42z M44.23,199.25l-1.64,1.41c-0.61,0.49-1.1,0.78-1.46,0.83
	c-0.36,0.06-0.77-0.08-1.22-0.42c-0.19-0.13-0.34-0.16-0.44-0.08c-0.11,0.09-0.08,0.24,0.08,0.44c0.09,0.11,0.46,0.51,1.11,1.21
	c0.41,0.44,0.7,0.78,0.88,0.99c0.26,0.32,0.49,0.62,0.69,0.92l0.59,0.89c0.08,0.1,0.14,0.2,0.21,0.26c0.22,0.26,0.38,0.34,0.5,0.25
	c0.12-0.09,0.05-0.35-0.21-0.77c-0.35-0.59-0.49-1.07-0.43-1.45c0.06-0.38,0.36-0.79,0.88-1.22l1.25-1.11l5.41-4.74l2.42-2.08
	c0.79-0.64,1.42-1.03,1.88-1.15c0.47-0.14,0.88-0.05,1.26,0.25l0.51,0.37c0.15,0.12,0.28,0.12,0.41,0.03
	c0.14-0.11,0.14-0.23,0.02-0.37c-0.08-0.07-0.18-0.17-0.29-0.29c-0.27-0.23-0.6-0.57-0.97-1.02c-0.12-0.14-0.21-0.26-0.27-0.37
	c-0.17-0.29-0.27-0.46-0.32-0.53c-0.11-0.13-0.23-0.2-0.33-0.2s-0.32,0.03-0.63,0.11l-14.34,3.36l-0.29,0.07l-0.39,0.1
	c-0.18,0.04-0.28,0.04-0.32,0c-0.03-0.04,0.01-0.17,0.12-0.39l0.61-1.41l5.57-11.96l0.14-0.31c0.26-0.56,0.27-0.99,0.02-1.29
	c-0.08-0.1-0.19-0.22-0.34-0.37c-0.14-0.14-0.44-0.51-0.92-1.09c-0.31-0.38-0.49-0.63-0.56-0.74c-0.13-0.18-0.22-0.3-0.27-0.36
	c-0.14-0.18-0.28-0.21-0.43-0.1c-0.13,0.11-0.13,0.28,0.01,0.52c0.5,0.89,0.59,1.74,0.28,2.55c-0.31,0.81-1.07,1.7-2.27,2.69
	c-0.57,0.46-1.97,1.51-4.2,3.15l-3.09,2.26c-0.86,0.64-1.56,0.99-2.07,1.08c-0.52,0.07-1.05-0.1-1.58-0.52
	c-0.18-0.14-0.32-0.17-0.43-0.07c-0.14,0.11-0.12,0.27,0.05,0.48c0.06,0.08,0.16,0.18,0.3,0.31c0.44,0.42,0.87,0.9,1.3,1.41
	c0.35,0.43,0.81,1.07,1.4,1.92c0.09,0.14,0.18,0.27,0.3,0.41c0.16,0.2,0.32,0.25,0.46,0.14c0.13-0.11,0.05-0.41-0.23-0.9
	c-0.6-0.99-0.3-1.97,0.9-2.94c1.24-1.02,2.09-1.69,2.52-2l5.24-3.87l-4.99,10.77l-0.25,0.56c-0.18,0.43-0.28,0.68-0.31,0.75
	c-0.21,0.41-0.25,0.72-0.12,0.89c0.13,0.16,0.42,0.18,0.85,0.05c0.1-0.02,0.28-0.06,0.54-0.11c0.44-0.09,0.99-0.22,1.65-0.37
	c1.6-0.4,2.48-0.61,2.65-0.65l3.05-0.64l2.73-0.62c0.56-0.12,1.6-0.28,3.11-0.5L44.23,199.25z M65.39,213.9
	c-1.4,1.81-2.9,2.85-4.46,3.09c-1.56,0.23-3.22-0.32-4.96-1.66c-1.95-1.52-2.91-3.12-2.89-4.86c0-1.21,0.7-2.71,2.09-4.52l4.08-5.26
	l0.51-0.71c0.52-0.67,0.96-1.09,1.3-1.24c0.34-0.16,0.76-0.12,1.25,0.12c0.27,0.15,0.44,0.15,0.54,0.03
	c0.08-0.1,0.03-0.21-0.14-0.34c-0.1-0.08-0.3-0.21-0.6-0.37c-0.35-0.2-0.57-0.35-0.66-0.42l-0.83-0.64l-0.85-0.64
	c-0.15-0.12-0.4-0.31-0.71-0.59c-0.31-0.26-0.56-0.46-0.74-0.61c-0.28-0.22-0.48-0.25-0.6-0.09c-0.09,0.11-0.05,0.25,0.14,0.43
	c0.59,0.59,0.87,1.11,0.87,1.56c0,0.45-0.29,1.05-0.86,1.79l-0.44,0.6l-4.12,5.31c-1.12,1.46-1.78,2.84-1.96,4.15
	c-0.15,1.15,0.09,2.33,0.74,3.55c0.64,1.22,1.58,2.31,2.81,3.28c1.07,0.82,2.22,1.4,3.45,1.75c1.23,0.34,2.35,0.38,3.36,0.12
	c1.59-0.41,3.11-1.56,4.59-3.46l4-5.18c0.68-0.88,1.2-1.42,1.58-1.63c0.38-0.21,0.86-0.23,1.45-0.05c0.2,0.06,0.33,0.04,0.4-0.04
	c0.09-0.12,0.06-0.23-0.07-0.34c-0.07-0.05-0.24-0.16-0.52-0.33c-0.21-0.13-0.73-0.51-1.54-1.13c-0.39-0.31-0.7-0.58-0.95-0.84
	c-0.26-0.29-0.48-0.51-0.63-0.64c-0.14-0.12-0.27-0.11-0.39,0.04c-0.1,0.13-0.05,0.29,0.15,0.47c0.59,0.55,0.86,1.12,0.82,1.73
	c-0.04,0.59-0.4,1.32-1.07,2.2L65.39,213.9 M88.7,219.13l0.61-1.27c0.36-0.76,0.69-1.24,0.99-1.45c0.3-0.2,0.73-0.23,1.3-0.1
	c0.2,0.04,0.32,0,0.36-0.1c0.06-0.17-0.02-0.3-0.23-0.4c-0.15-0.07-0.36-0.14-0.64-0.23c-0.33-0.1-0.75-0.28-1.26-0.52
	c-0.97-0.45-1.73-0.86-2.27-1.2c-0.23-0.14-0.4-0.23-0.51-0.28c-0.23-0.12-0.4-0.11-0.46,0.04c-0.06,0.14,0,0.3,0.23,0.45
	c0.79,0.54,1.28,1.03,1.48,1.47c0.19,0.44,0.17,1.02-0.07,1.73l-1.16,2.81l-0.77,1.59l-2.8,5.9c-0.08,0.13-0.16,0.2-0.25,0.16
	c-0.05-0.02-0.13-0.16-0.22-0.46l-5.62-17.81c-0.1-0.33-0.25-0.54-0.46-0.64c-0.11-0.05-0.27-0.12-0.47-0.2l-0.21-0.07l-0.82-0.42
	l-0.5-0.25c-0.09-0.05-0.15-0.09-0.2-0.11c-0.18-0.09-0.3-0.06-0.37,0.08c-0.07,0.14,0.01,0.27,0.22,0.41
	c0.8,0.52,1.25,1.29,1.32,2.3c0.08,1-0.2,2.2-0.86,3.57l-3.85,8.1c-0.41,0.86-0.83,1.43-1.26,1.7c-0.43,0.27-1.05,0.35-1.86,0.24
	c-0.28-0.03-0.44,0.01-0.48,0.13c-0.05,0.15,0.03,0.26,0.25,0.37c0.09,0.05,0.25,0.09,0.48,0.15c0.31,0.09,0.63,0.22,0.95,0.37
	l0.6,0.26l1.25,0.64c0.61,0.33,0.97,0.53,1.05,0.59c0.12,0.08,0.24,0.14,0.36,0.21c0.18,0.08,0.3,0.05,0.36-0.09
	c0.08-0.17-0.01-0.32-0.27-0.48c-0.61-0.41-0.98-0.76-1.11-1.07c-0.13-0.31-0.1-0.74,0.1-1.29l0.36-0.86l0.25-0.49l3.84-8.09
	c0.17-0.36,0.34-0.5,0.5-0.42c0.06,0.03,0.11,0.09,0.14,0.16l0.07,0.18l5.11,16.44l0.13,0.42c0.04,0.1,0.11,0.18,0.23,0.25
	c0.18,0.1,0.34,0.06,0.47-0.1c0.13-0.17,0.42-0.71,0.84-1.61l4.73-9.96L88.7,219.13z M98.45,221.68c0.51-1.79,1.13-2.71,1.86-2.76
	l0.77-0.06c0.25-0.01,0.4-0.08,0.43-0.21c0.04-0.15-0.05-0.26-0.29-0.32c-0.05-0.02-0.17-0.04-0.34-0.08l-0.91-0.17
	c-0.48-0.1-1.04-0.24-1.7-0.43c-1.07-0.31-1.91-0.6-2.53-0.87c-0.08-0.04-0.16-0.06-0.23-0.08c-0.27-0.08-0.42-0.04-0.46,0.14
	c-0.03,0.14,0.08,0.27,0.34,0.4c0.79,0.36,1.25,0.75,1.4,1.19c0.15,0.44,0.07,1.18-0.23,2.23l-3.12,10.89
	c-0.3,1.08-0.6,1.76-0.89,2.04c-0.29,0.29-0.78,0.38-1.48,0.3c-0.28-0.03-0.44,0.02-0.48,0.17c-0.05,0.17,0.05,0.29,0.28,0.35
	c0.17,0.04,0.39,0.09,0.65,0.14l1.59,0.34l1.92,0.59c0.66,0.18,1.12,0.34,1.38,0.46c0.2,0.09,0.36,0.15,0.49,0.19
	c0.27,0.08,0.44,0.03,0.49-0.16c0.04-0.14-0.16-0.31-0.59-0.49c-0.54-0.23-0.92-0.48-1.13-0.72c-0.21-0.26-0.34-0.63-0.4-1.12
	c-0.04-0.43,0.11-1.24,0.45-2.42L98.45,221.68 M117.89,222.72c0.77,0.1,1.28,0.26,1.52,0.48c0.24,0.22,0.38,0.65,0.42,1.28
	c0.02,0.28,0.1,0.44,0.26,0.45c0.2,0.01,0.31-0.12,0.33-0.38c0.01-0.13,0.01-0.34,0-0.64c-0.01-0.23,0.02-0.61,0.08-1.11
	c0.07-0.52,0.06-0.83-0.04-0.95c-0.09-0.12-0.39-0.2-0.89-0.27l-14.78-1.97c-0.32-0.04-0.52,0-0.64,0.1
	c-0.11,0.12-0.19,0.36-0.24,0.77c-0.06,0.4-0.19,0.91-0.4,1.5c-0.17,0.47-0.27,0.8-0.29,0.98c-0.03,0.22,0.04,0.34,0.19,0.37
	c0.16,0.03,0.3-0.12,0.43-0.44c0.28-0.75,0.61-1.25,0.98-1.48c0.37-0.23,0.93-0.3,1.67-0.2l3.64,0.49c0.35,0.04,0.56,0.12,0.64,0.22
	c0.08,0.1,0.11,0.3,0.07,0.61l-0.03,0.34l-1.72,12.95c-0.1,0.73-0.29,1.22-0.57,1.48c-0.28,0.25-0.78,0.38-1.49,0.37
	c-0.31,0-0.48,0.06-0.49,0.19c-0.02,0.17,0.11,0.27,0.38,0.31c0.09,0.01,0.4,0.03,0.93,0.03c0.27,0.01,0.59,0.04,0.98,0.09
	l1.08,0.12l0.99,0.15c0.65,0.09,1.05,0.16,1.23,0.21c0.32,0.11,0.55,0.16,0.66,0.18c0.26,0.03,0.4-0.04,0.42-0.21
	c0.02-0.14-0.13-0.26-0.44-0.35c-1.12-0.34-1.64-1.02-1.55-2.06l0.06-0.52l1.7-12.81c0.06-0.41,0.15-0.66,0.26-0.74
	c0.12-0.09,0.39-0.11,0.79-0.05L117.89,222.72 M132.38,230.92c-0.02-0.4,0.13-0.84,0.46-1.33l0.3-0.46l3.09-4.97l0.82-1.34
	c0.51-0.76,1.16-1.29,1.98-1.59c0.23-0.08,0.34-0.18,0.33-0.31c-0.01-0.16-0.14-0.23-0.39-0.19c-0.14,0.01-0.38,0.06-0.73,0.12
	c-0.26,0.06-0.86,0.11-1.8,0.17c-1.02,0.05-1.68,0.07-1.95,0.05c-0.35-0.05-0.6-0.06-0.74-0.05c-0.2,0-0.31,0.08-0.31,0.22
	c0,0.14,0.11,0.23,0.35,0.28c1.16,0.21,1.76,0.6,1.8,1.18c0.02,0.34-0.27,1.02-0.85,2.02l-0.62,1.07l-1.83,3.01l-0.12,0.2
	c-0.08,0.14-0.18,0.2-0.27,0.21c-0.09,0.01-0.18-0.05-0.26-0.18l-0.2-0.26l-3.18-4.19l-0.43-0.62c-0.44-0.58-0.66-0.99-0.68-1.22
	c-0.02-0.43,0.28-0.74,0.88-0.95c0.22-0.07,0.32-0.17,0.31-0.29c-0.01-0.15-0.15-0.23-0.41-0.21c-0.09,0-0.33,0.04-0.72,0.09
	c-0.37,0.06-1.23,0.12-2.57,0.19c-0.65,0.04-1.26,0.04-1.86,0c-0.24-0.02-0.47-0.02-0.69-0.01c-0.29,0.01-0.42,0.12-0.41,0.3
	c0,0.15,0.14,0.22,0.41,0.21c0.48-0.03,0.96,0.08,1.46,0.32c0.5,0.23,0.88,0.54,1.18,0.94l0.51,0.7l4.19,5.65
	c0.35,0.46,0.58,0.83,0.66,1.08c0.1,0.25,0.17,0.67,0.21,1.24l0.21,3.94l0.02,0.56c0.05,0.95-0.02,1.56-0.21,1.86
	c-0.2,0.3-0.68,0.53-1.45,0.67c-0.31,0.07-0.45,0.17-0.45,0.33c0.01,0.13,0.12,0.19,0.33,0.18c0.08-0.01,0.26-0.04,0.53-0.1
	c0.23-0.04,0.69-0.08,1.37-0.13l1.08-0.09l1.1-0.01c0.44,0,0.78,0.01,1.01,0.02c0.38,0.02,0.62,0.04,0.72,0.02
	c0.33-0.02,0.48-0.12,0.47-0.32c-0.01-0.15-0.16-0.23-0.44-0.23c-0.84-0.04-1.35-0.16-1.54-0.38c-0.18-0.22-0.31-0.84-0.36-1.87
	L132.38,230.92z M165.26,214.78c-0.15-0.3-0.3-0.43-0.43-0.38c-0.07,0.03-0.18,0.13-0.32,0.32c-0.06,0.1-0.12,0.16-0.16,0.17h-0.24
	l-0.25-0.02l-0.61-0.08c-1.82-0.25-3.64-0.05-5.48,0.59c-2.68,0.94-4.6,2.57-5.78,4.9c-1.16,2.33-1.31,4.79-0.4,7.37
	c0.9,2.58,2.49,4.36,4.75,5.34c2.27,0.98,4.8,0.98,7.59,0c2.42-0.85,4.42-2.23,6-4.13c0.29-0.35,0.42-0.65,0.38-0.88l-0.02-0.24
	l-0.23-1.64l-0.04-0.28l-0.04-0.15c-0.06-0.16-0.15-0.22-0.28-0.16c-0.12,0.05-0.21,0.33-0.28,0.84c-0.16,1.12-0.75,2.23-1.78,3.32
	c-1.03,1.1-2.2,1.88-3.51,2.34c-2.24,0.79-4.36,0.61-6.35-0.53c-2-1.13-3.45-3-4.36-5.58c-0.79-2.25-0.77-4.24,0.06-5.99
	c0.82-1.74,2.35-3,4.56-3.78c2.79-0.97,5.47-0.39,8.04,1.76c0.34,0.28,0.56,0.4,0.66,0.36c0.08-0.04,0.13-0.1,0.15-0.19l0-0.15
	l-0.15-0.29L165.26,214.78 M175.21,206.97c-1.18,0.73-2.22,1.65-3.08,2.76c-0.88,1.12-1.46,2.26-1.76,3.44
	c-0.28,1.11-0.32,2.3-0.11,3.57c0.21,1.27,0.62,2.41,1.26,3.44c1.45,2.38,3.42,3.82,5.88,4.33c2.45,0.5,4.96-0.03,7.5-1.58
	c2.47-1.51,4.04-3.53,4.69-6.02c0.64-2.5,0.24-4.95-1.23-7.34c-1.39-2.27-3.31-3.64-5.77-4.12
	C180.14,204.95,177.67,205.46,175.21,206.97 M174.9,208.16c2.12-1.29,4.36-1.65,6.7-1.02c2.34,0.62,4.19,2.05,5.55,4.27
	c1.2,1.95,1.59,3.93,1.17,5.92c-0.42,2-1.53,3.55-3.37,4.67c-1.99,1.23-4.16,1.48-6.49,0.78c-2.32-0.72-4.18-2.21-5.57-4.48
	c-1.21-1.98-1.64-3.88-1.28-5.71C171.98,210.76,173.07,209.28,174.9,208.16 M189.9,200.32c-0.93-1.04-1.15-1.91-0.67-2.61l0.3-0.39
	c0.16-0.23,0.17-0.41,0.05-0.54c-0.08-0.09-0.2-0.07-0.36,0.09c-0.03,0.03-0.17,0.17-0.41,0.43c-0.47,0.51-1.02,1.05-1.65,1.61
	c-0.58,0.53-1.12,0.97-1.62,1.34c-0.3,0.21-0.53,0.4-0.69,0.54c-0.23,0.2-0.28,0.38-0.15,0.53c0.08,0.1,0.23,0.09,0.42-0.03
	l0.54-0.34c0.87-0.52,1.7-0.35,2.49,0.52l7.89,8.79l0.4,0.47c0.57,0.63,0.89,1.15,0.97,1.57c0.07,0.41-0.07,0.89-0.42,1.46
	c-0.14,0.21-0.17,0.37-0.08,0.47c0.1,0.11,0.23,0.08,0.39-0.07c0.14-0.13,0.32-0.33,0.53-0.58c0.52-0.57,1.2-1.24,2.04-2
	c0.73-0.64,1.42-1.25,2.11-1.8l1.18-0.93c0.31-0.24,0.57-0.45,0.79-0.65c1.33-1.19,1.97-2.41,1.93-3.63
	c-0.04-0.88-0.24-1.55-0.59-2.01c-0.12-0.13-0.22-0.15-0.33-0.05c-0.1,0.09-0.12,0.26-0.06,0.53c0.17,0.72-0.09,1.65-0.77,2.79
	c-0.69,1.15-1.67,2.29-2.95,3.45c-0.88,0.79-1.46,1.17-1.75,1.17c-0.28,0-0.78-0.4-1.49-1.18l-0.33-0.35L189.9,200.32z
	 M200.8,189.33c-1.07-0.88-1.43-1.71-1.06-2.46l0.23-0.44c0.12-0.25,0.11-0.42-0.03-0.54c-0.1-0.08-0.22-0.03-0.36,0.14
	c-0.03,0.04-0.13,0.2-0.33,0.5c-0.38,0.58-0.84,1.19-1.38,1.84c-0.49,0.61-0.95,1.14-1.4,1.58c-0.26,0.26-0.47,0.47-0.6,0.63
	c-0.2,0.25-0.22,0.43-0.07,0.56c0.1,0.08,0.23,0.05,0.41-0.09l0.48-0.42c0.78-0.65,1.63-0.61,2.54,0.13l9.15,7.47l0.47,0.4
	c0.65,0.53,1.06,1,1.19,1.4c0.14,0.4,0.08,0.89-0.18,1.51c-0.11,0.24-0.12,0.4-0.01,0.48c0.11,0.09,0.24,0.04,0.38-0.14
	c0.12-0.15,0.26-0.37,0.43-0.65c0.42-0.65,0.99-1.42,1.71-2.29c0.62-0.76,1.23-1.46,1.81-2.12l1.02-1.1
	c0.26-0.28,0.49-0.53,0.68-0.76c1.13-1.38,1.58-2.68,1.35-3.89c-0.18-0.86-0.48-1.5-0.89-1.89c-0.13-0.12-0.25-0.12-0.34,0
	c-0.08,0.11-0.07,0.28,0.04,0.53c0.27,0.67,0.16,1.63-0.34,2.87c-0.49,1.24-1.29,2.52-2.38,3.86c-0.74,0.91-1.25,1.38-1.54,1.43
	c-0.29,0.04-0.84-0.27-1.66-0.94l-0.38-0.29L200.8,189.33z M208.8,176.86c-0.4-0.24-0.63-0.46-0.67-0.68
	c-0.04-0.2,0.08-0.56,0.37-1.06l1.09-1.86c0.71-1.23,1.27-2.04,1.65-2.43c0.39-0.4,0.78-0.57,1.2-0.53
	c0.28,0.04,0.54,0.12,0.79,0.26l0.28,0.17c0.24,0.13,0.4,0.12,0.49-0.05c0.07-0.14,0.07-0.27-0.02-0.38
	c-0.08-0.11-0.33-0.31-0.74-0.6l-0.62-0.43c-0.47-0.32-0.75-0.53-0.84-0.61c-0.1-0.09-0.18-0.15-0.24-0.19
	c-0.22-0.13-0.41-0.05-0.56,0.21c-0.06,0.1-0.14,0.27-0.23,0.51c-0.05,0.11-0.2,0.4-0.46,0.88l-0.91,1.73
	c-0.41,0.77-0.9,1.63-1.46,2.6c-0.93,1.6-1.8,2.92-2.59,3.99c-0.24,0.31-0.42,0.56-0.53,0.76c-0.2,0.36-0.2,0.6,0,0.72
	c0.14,0.09,0.28,0.01,0.41-0.22c0.42-0.71,0.89-1.09,1.42-1.12c0.53-0.03,1.34,0.28,2.43,0.93l9.67,5.65l0.74,0.45
	c0.91,0.53,1.28,1.13,1.12,1.79l-0.15,0.51c-0.07,0.23-0.04,0.39,0.08,0.46c0.15,0.09,0.29,0,0.44-0.25
	c0.07-0.11,0.16-0.34,0.28-0.67c0.25-0.62,0.78-1.62,1.59-3c0.58-1,1.38-2.21,2.4-3.64c0.26-0.37,0.46-0.67,0.59-0.9
	c0.63-1.07,0.74-2.18,0.34-3.35c-0.34-0.96-0.75-1.6-1.25-1.89c-0.2-0.12-0.35-0.09-0.43,0.07c-0.05,0.1-0.03,0.23,0.05,0.41
	c0.81,1.66,0.31,4.05-1.51,7.16c-0.57,0.98-1.01,1.54-1.31,1.69c-0.3,0.15-0.77,0.03-1.42-0.34l-4.18-2.45l-0.39-0.21
	c-0.22-0.13-0.34-0.29-0.33-0.46c0-0.17,0.11-0.46,0.34-0.85l1.54-2.64c0.4-0.69,0.78-1.12,1.12-1.31c0.34-0.18,0.79-0.18,1.36,0.03
	l0.35,0.12c0.19,0.06,0.34,0,0.44-0.18c0.1-0.16,0.05-0.3-0.14-0.41c-0.07-0.04-0.19-0.1-0.35-0.16c-0.49-0.2-0.96-0.43-1.41-0.69
	c-0.6-0.35-1.23-0.78-1.91-1.27c-0.11-0.07-0.19-0.13-0.23-0.16c-0.2-0.11-0.34-0.1-0.45,0.06c-0.11,0.16-0.08,0.33,0.09,0.48
	c0.43,0.4,0.69,0.69,0.75,0.9c0.06,0.21,0,0.55-0.16,1.02c-0.19,0.54-0.53,1.23-1.02,2.06l-1.07,1.83c-0.2,0.34-0.35,0.53-0.46,0.56
	c-0.11,0.02-0.35-0.06-0.71-0.28L208.8,176.86 M230.65,156.22c0.81,0.29,1.33,0.64,1.55,1.03c0.95,1.62,1.06,3.45,0.34,5.46
	c-0.75,2.11-2.19,3.6-4.31,4.46c-2.12,0.86-4.39,0.86-6.78,0c-2.23-0.8-3.83-2.07-4.8-3.82c-0.97-1.74-1.1-3.6-0.41-5.56
	c0.56-1.57,1.51-2.91,2.82-4.02c1.33-1.12,2.76-1.78,4.32-2c0.17-0.02,0.28-0.1,0.31-0.22c0.06-0.17-0.02-0.31-0.22-0.38
	c-0.09-0.03-0.21-0.05-0.38-0.06c-0.35-0.03-0.68-0.08-1.02-0.15l-1.2-0.27c-0.41-0.08-0.69-0.15-0.88-0.23
	c-0.39-0.14-0.61-0.13-0.67,0.03c-0.02,0.06-0.02,0.13,0.01,0.21l0.11,0.4c0.03,0.13,0.04,0.22,0.02,0.29
	c-0.02,0.04-0.08,0.1-0.19,0.18c-0.66,0.53-1.34,1.33-2.03,2.38c-0.69,1.05-1.23,2.08-1.59,3.1c-0.94,2.66-0.87,5.18,0.24,7.57
	c1.1,2.38,2.95,4.04,5.55,4.97c2.48,0.88,4.81,0.78,6.98-0.32c2.18-1.1,3.74-2.96,4.66-5.56c0.7-1.94,0.88-3.93,0.56-5.95
	l-0.19-1.05c-0.09-0.58-0.1-0.99-0.06-1.24c0.05-0.21,0.06-0.34,0.05-0.41l-0.17-0.14l-0.41-0.12l-4.01-1.43l-0.4-0.12
	c-0.77-0.28-1.11-0.76-1.03-1.48c0.03-0.28-0.03-0.44-0.16-0.49c-0.15-0.06-0.25,0.02-0.33,0.22c-0.03,0.1-0.13,0.46-0.28,1.07
	c-0.05,0.23-0.32,1.01-0.8,2.35l-0.37,0.97l-0.2,0.52c-0.11,0.3-0.08,0.47,0.07,0.52c0.17,0.06,0.34-0.09,0.48-0.42
	c0.31-0.68,0.59-1.1,0.86-1.27c0.26-0.16,0.65-0.16,1.15,0.02L230.65,156.22 M222.06,142.07c-0.47-0.07-0.76-0.19-0.88-0.38
	c-0.11-0.18-0.13-0.55-0.04-1.12l0.31-2.14c0.21-1.4,0.41-2.37,0.63-2.87c0.21-0.51,0.51-0.82,0.92-0.94
	c0.26-0.07,0.54-0.09,0.82-0.05l0.32,0.05c0.27,0.04,0.42-0.03,0.43-0.22c0.02-0.17-0.03-0.28-0.15-0.35
	c-0.12-0.06-0.43-0.16-0.91-0.29l-0.74-0.16c-0.56-0.12-0.9-0.21-1.01-0.25c-0.12-0.05-0.22-0.07-0.29-0.09
	c-0.24-0.03-0.39,0.1-0.44,0.39c-0.02,0.13-0.03,0.31-0.03,0.56c0,0.12-0.02,0.45-0.08,0.99l-0.2,1.95
	c-0.1,0.86-0.22,1.85-0.38,2.96c-0.27,1.83-0.57,3.39-0.91,4.66c-0.11,0.38-0.18,0.68-0.21,0.91c-0.06,0.41,0.03,0.64,0.27,0.67
	c0.15,0.02,0.25-0.1,0.29-0.36c0.12-0.83,0.41-1.35,0.89-1.57c0.47-0.23,1.34-0.25,2.6-0.06l11.09,1.63l0.85,0.14
	c1.05,0.14,1.62,0.56,1.71,1.24l0.06,0.53c0.02,0.24,0.1,0.36,0.23,0.39c0.17,0.03,0.28-0.11,0.32-0.4c0.01-0.13,0.02-0.36,0-0.72
	c0-0.67,0.11-1.79,0.35-3.39c0.16-1.14,0.45-2.55,0.87-4.27c0.1-0.44,0.17-0.79,0.21-1.05c0.18-1.22-0.14-2.3-0.93-3.23
	c-0.68-0.78-1.3-1.21-1.86-1.29c-0.24-0.04-0.37,0.04-0.38,0.23c-0.01,0.1,0.06,0.23,0.2,0.35c1.38,1.25,1.8,3.64,1.28,7.2
	c-0.17,1.12-0.36,1.81-0.59,2.06c-0.22,0.25-0.7,0.32-1.45,0.21l-4.79-0.71l-0.44-0.05c-0.25-0.04-0.41-0.13-0.49-0.3
	c-0.06-0.16-0.06-0.48,0.01-0.91l0.44-3.03c0.12-0.79,0.3-1.34,0.55-1.63c0.25-0.3,0.68-0.46,1.28-0.48l0.38-0.03
	c0.19-0.02,0.3-0.12,0.34-0.33c0.03-0.18-0.07-0.29-0.28-0.32c-0.08-0.01-0.22-0.02-0.38-0.02c-0.52,0-1.05-0.04-1.57-0.12
	c-0.68-0.1-1.43-0.25-2.25-0.46c-0.14-0.04-0.23-0.05-0.29-0.06c-0.22-0.04-0.35,0.04-0.38,0.23c-0.05,0.19,0.04,0.33,0.25,0.41
	c0.56,0.2,0.9,0.39,1.03,0.56c0.13,0.18,0.21,0.51,0.23,1.02c0.03,0.56-0.03,1.34-0.17,2.29l-0.31,2.11
	c-0.06,0.39-0.14,0.61-0.23,0.68c-0.1,0.06-0.35,0.07-0.76,0.01L222.06,142.07 M221.09,123.18c0.03,1.74,0.5,3.16,1.42,4.26
	c0.92,1.09,2.08,1.63,3.5,1.6c1.27-0.03,2.3-0.47,3.08-1.33c0.79-0.86,1.5-2.32,2.11-4.36c0.6-1.98,1.07-3.18,1.41-3.61
	c0.65-0.81,1.46-1.23,2.44-1.25c1.02-0.02,1.9,0.4,2.63,1.26c0.72,0.86,1.1,1.92,1.13,3.17c0.02,1.24-0.33,2.4-1.05,3.47
	c-0.72,1.07-1.62,1.79-2.71,2.14c-0.42,0.13-0.64,0.3-0.65,0.47c0,0.19,0.13,0.29,0.4,0.28c0.33,0,0.89-0.13,1.68-0.39
	c0.72-0.23,1.12-0.36,1.18-0.37c0.5-0.12,0.8-0.21,0.91-0.27c0.12-0.06,0.23-0.17,0.34-0.34c0.24-0.41,0.45-1.04,0.63-1.88
	c0.18-0.85,0.26-1.63,0.24-2.34c-0.04-1.95-0.58-3.54-1.63-4.77c-1.07-1.24-2.42-1.83-4.07-1.8c-2.42,0.04-4.13,1.77-5.13,5.18
	c-0.53,1.75-0.88,2.85-1.09,3.3c-0.2,0.45-0.53,0.86-0.98,1.25c-0.53,0.44-1.16,0.67-1.9,0.68c-0.83,0.02-1.54-0.31-2.11-0.95
	c-0.57-0.66-0.87-1.46-0.88-2.45c-0.02-1.24,0.26-2.37,0.85-3.39c0.6-1.02,1.37-1.7,2.32-2.04c0.42-0.16,0.63-0.31,0.63-0.47
	c0-0.2-0.14-0.3-0.41-0.29c-0.08,0-0.26,0.03-0.54,0.08l-1.34,0.23c-0.73,0.13-1.17,0.2-1.32,0.2c-0.44,0-0.65,0.13-0.63,0.36
	c0,0.08,0.02,0.13,0.05,0.15l0.15,0.2c0.1,0.11,0.14,0.22,0.14,0.33c0,0.09-0.01,0.18-0.05,0.25l-0.36,0.96
	C221.19,121.36,221.07,122.19,221.09,123.18"/>
<path style="fill:#003366;" d="M54.52,36.99l2.5,2.01l0.25,0.21l0.06,0.13c0.02,0.09,0,0.16-0.06,0.23
	c-0.08,0.08-0.33,0.06-0.75-0.07c-3.22-0.92-5.94-0.37-8.11,1.65c-1.73,1.61-2.63,3.39-2.68,5.33c-0.06,1.94,0.73,3.79,2.35,5.54
	c1.88,2.01,3.97,3.15,6.27,3.4c2.29,0.24,4.31-0.44,6.06-2.06c1.01-0.95,1.77-2.14,2.27-3.57c0.5-1.44,0.59-2.71,0.26-3.81
	c-0.13-0.51-0.16-0.82-0.06-0.91c0.1-0.11,0.21-0.11,0.34,0.03l0.09,0.12l0.15,0.24l0.89,1.44l0.12,0.21
	c0.14,0.2,0.14,0.51,0.01,0.97c-0.68,2.4-1.97,4.47-3.85,6.23c-2.18,2.03-4.51,3.05-6.99,3.06c-2.48,0.01-4.66-1-6.53-3.01
	c-1.88-2.01-2.74-4.33-2.6-6.95c0.14-2.62,1.26-4.9,3.35-6.84c1.43-1.33,3.03-2.25,4.8-2.75l0.6-0.17l0.23-0.09l0.23-0.1
	c0.03-0.03,0.05-0.11,0.07-0.22c0.06-0.24,0.11-0.37,0.17-0.42C54.07,36.72,54.25,36.77,54.52,36.99 M73.34,36
	c0.45-0.27,0.74-0.4,0.87-0.39c0.13,0.01,0.41,0.17,0.82,0.48l1.51,1.13c1.21,0.88,1.94,1.53,2.18,1.92
	c0.26,0.44,0.22,0.81-0.12,1.12l-0.31,0.3c-0.17,0.17-0.22,0.31-0.14,0.44c0.11,0.18,0.26,0.19,0.47,0.07
	c0.07-0.05,0.18-0.14,0.32-0.28c0.25-0.21,0.93-0.65,2.02-1.32c1.05-0.63,1.79-1.07,2.2-1.3c0.24-0.13,0.39-0.21,0.46-0.26
	c0.22-0.13,0.28-0.25,0.22-0.38c-0.08-0.14-0.26-0.17-0.53-0.08c-0.83,0.34-1.44,0.47-1.82,0.39c-0.38-0.07-1.04-0.45-1.96-1.13
	l-0.64-0.46l-12.63-9.31c-0.22-0.17-0.4-0.21-0.53-0.14c-0.13,0.08-0.18,0.27-0.15,0.56l1.7,16.61l0.11,0.96
	c0.04,0.45,0.03,0.92-0.05,1.4c-0.07,0.48-0.18,0.79-0.3,0.94l-0.37,0.38c-0.11,0.13-0.12,0.25-0.04,0.39
	c0.09,0.14,0.24,0.15,0.44,0.02c0.04-0.02,0.24-0.19,0.6-0.5c0.12-0.1,0.29-0.21,0.52-0.34c0.5-0.3,0.94-0.56,1.33-0.77l1.18-0.6
	c0.18-0.1,0.33-0.18,0.41-0.23c0.23-0.14,0.3-0.26,0.21-0.39c-0.09-0.14-0.28-0.15-0.54-0.06c-0.61,0.22-1.07,0.31-1.35,0.27
	c-0.29-0.04-0.53-0.25-0.75-0.6c-0.22-0.37-0.39-1.05-0.49-2.02l-0.21-2.15c-0.08-0.65-0.06-1.07,0.02-1.25
	c0.1-0.18,0.43-0.45,1.02-0.8L73.34,36 M72.55,34.26c0.12,0.1,0.2,0.17,0.23,0.23c0.12,0.19-0.03,0.41-0.42,0.65l-3.6,2.18
	l-0.33,0.19c-0.36,0.22-0.6,0.23-0.73,0.03c-0.03-0.06-0.07-0.23-0.09-0.5l-0.65-6.3c-0.01-0.2,0-0.31,0.06-0.34
	c0.12-0.06,0.29,0,0.53,0.19l0.25,0.18l4.58,3.34L72.55,34.26z M83.64,21.88c-0.51-1.31-0.39-2.2,0.31-2.68l0.42-0.26
	c0.22-0.15,0.3-0.32,0.23-0.48c-0.04-0.11-0.16-0.14-0.37-0.06c-0.04,0.02-0.22,0.1-0.53,0.26c-0.62,0.31-1.33,0.61-2.11,0.91
	c-0.73,0.28-1.4,0.51-2,0.68c-0.36,0.09-0.64,0.17-0.83,0.24c-0.29,0.11-0.41,0.26-0.33,0.44c0.04,0.12,0.17,0.16,0.4,0.12
	l0.63-0.12c1-0.17,1.71,0.29,2.13,1.4l4.21,11.07l0.2,0.58c0.3,0.79,0.41,1.4,0.33,1.81c-0.08,0.42-0.39,0.83-0.94,1.23
	c-0.22,0.15-0.3,0.3-0.25,0.44c0.05,0.15,0.2,0.18,0.4,0.09c0.18-0.08,0.42-0.19,0.71-0.34c0.69-0.36,1.57-0.74,2.64-1.14
	c0.92-0.35,1.8-0.66,2.63-0.94l1.45-0.44c0.38-0.12,0.71-0.22,0.98-0.33c1.68-0.64,2.72-1.53,3.13-2.7
	c0.29-0.84,0.34-1.53,0.18-2.09c-0.05-0.17-0.15-0.22-0.3-0.17c-0.12,0.05-0.2,0.2-0.23,0.48c-0.1,0.72-0.68,1.5-1.73,2.32
	c-1.05,0.82-2.39,1.54-4.01,2.16c-1.11,0.43-1.8,0.58-2.07,0.47c-0.27-0.1-0.59-0.66-0.97-1.66l-0.18-0.44L83.64,21.88z
	 M101.02,17.41c-0.43-1.82-0.33-2.94,0.27-3.35l0.64-0.42c0.21-0.12,0.31-0.25,0.27-0.39c-0.04-0.15-0.17-0.2-0.41-0.14
	c-0.05,0.01-0.17,0.05-0.33,0.1l-0.88,0.29c-0.47,0.14-1.03,0.29-1.7,0.45c-1.08,0.25-1.96,0.42-2.63,0.48
	c-0.09,0-0.17,0.02-0.24,0.04c-0.27,0.06-0.38,0.18-0.33,0.35c0.05,0.14,0.21,0.2,0.5,0.18c0.86-0.07,1.46,0.05,1.81,0.37
	c0.35,0.32,0.63,1.01,0.88,2.07l2.58,11.1c0.26,1.1,0.32,1.84,0.21,2.23c-0.11,0.39-0.49,0.72-1.14,0.98
	c-0.26,0.11-0.38,0.23-0.34,0.38c0.04,0.17,0.18,0.22,0.42,0.17c0.17-0.04,0.38-0.11,0.63-0.2l1.56-0.47l1.96-0.42
	c0.67-0.16,1.15-0.25,1.43-0.26c0.21-0.02,0.39-0.04,0.53-0.07c0.28-0.06,0.4-0.19,0.35-0.38c-0.03-0.14-0.29-0.19-0.75-0.15
	c-0.59,0.07-1.03,0.03-1.34-0.08c-0.31-0.12-0.6-0.38-0.89-0.79c-0.25-0.35-0.51-1.13-0.79-2.34L101.02,17.41 M113.01,13.62
	c-0.05-0.53,0.04-0.86,0.28-1.01c0.23-0.15,0.86-0.27,1.89-0.36c0.79-0.07,1.44-0.11,1.96-0.13l1.63,0.02
	c0.62-0.01,1.02,0.04,1.21,0.15c0.19,0.11,0.37,0.39,0.53,0.83c0.1,0.27,0.17,0.54,0.23,0.8c0.04,0.22,0.14,0.31,0.29,0.3
	c0.26-0.02,0.37-0.23,0.34-0.63c-0.09-0.97-0.08-1.74,0.02-2.34c0.03-0.19,0.04-0.34,0.03-0.44c-0.02-0.2-0.13-0.29-0.34-0.27
	c-0.14,0.01-0.28,0.04-0.45,0.08c-0.23,0.07-0.77,0.16-1.6,0.27l-1.91,0.27c-0.5,0.08-1.61,0.19-3.36,0.35
	c-1.96,0.18-3.34,0.26-4.18,0.26c-0.45-0.01-0.74-0.01-0.86,0c-0.39,0.03-0.56,0.16-0.52,0.38c0.02,0.13,0.14,0.19,0.36,0.19
	c0.56,0,0.94,0.04,1.18,0.13c0.23,0.08,0.46,0.26,0.67,0.55c0.32,0.42,0.53,1.06,0.61,1.89l1.11,11.93c0.08,0.87,0.03,1.5-0.15,1.86
	c-0.18,0.38-0.56,0.65-1.14,0.82c-0.28,0.09-0.42,0.22-0.4,0.36c0.01,0.15,0.16,0.22,0.42,0.19c0.14-0.02,0.38-0.07,0.7-0.13
	c0.39-0.09,0.7-0.15,0.94-0.17l1.06-0.1l0.96-0.08c0.6-0.06,1.05-0.08,1.36-0.05c0.36,0.02,0.66,0.02,0.86,0
	c0.29-0.03,0.42-0.14,0.39-0.32c-0.03-0.18-0.21-0.24-0.52-0.21c-0.66,0.05-1.2-0.1-1.63-0.48c-0.43-0.38-0.68-0.92-0.74-1.62
	l-0.45-4.92c-0.03-0.36-0.03-0.63-0.01-0.8c0.03-0.16,0.2-0.28,0.52-0.35c0.32-0.07,1.04-0.16,2.14-0.27
	c1.2-0.1,2.11-0.12,2.74-0.03c0.31,0.05,0.54,0.15,0.69,0.3c0.14,0.15,0.29,0.46,0.45,0.91c0.14,0.41,0.3,0.61,0.49,0.59
	c0.18-0.01,0.26-0.12,0.24-0.32c-0.01-0.08-0.03-0.2-0.06-0.36c-0.06-0.28-0.14-0.92-0.23-1.93c-0.04-0.37-0.06-0.63-0.06-0.79
	l-0.05-1.29c-0.01-0.27-0.1-0.41-0.3-0.38c-0.15,0.01-0.24,0.13-0.26,0.34c-0.05,0.6-0.25,1.03-0.62,1.31
	c-0.37,0.27-0.97,0.45-1.82,0.53l-1.61,0.17l-0.46,0.06l-1.19,0.08c-0.49,0.05-0.76-0.05-0.82-0.29l-0.03-0.33l-0.04-0.26
	L113.01,13.62 M135.56,11.11c-1.39-0.12-2.78,0-4.15,0.37c-1.37,0.37-2.53,0.94-3.47,1.71c-0.89,0.73-1.63,1.67-2.23,2.81
	c-0.59,1.15-0.95,2.32-1.05,3.53c-0.25,2.8,0.46,5.14,2.15,7.02c1.69,1.88,4.01,2.95,6.99,3.22c2.9,0.26,5.37-0.42,7.4-2.04
	c2.02-1.63,3.16-3.85,3.42-6.66c0.24-2.65-0.48-4.92-2.18-6.78C140.74,12.43,138.45,11.37,135.56,11.11 M134.59,11.88
	c2.5,0.22,4.5,1.28,6.02,3.19c1.51,1.9,2.16,4.17,1.92,6.78c-0.2,2.29-1.07,4.11-2.61,5.48c-1.53,1.36-3.37,1.94-5.52,1.76
	c-2.35-0.21-4.25-1.31-5.7-3.28c-1.45-1.98-2.05-4.29-1.82-6.95c0.21-2.33,1.01-4.12,2.4-5.38
	C130.67,12.21,132.44,11.68,134.59,11.88 M155.73,24.53c2.5-0.4,4.01-1.56,4.57-3.46c0.42-1.45,0.22-2.7-0.61-3.73
	c-0.83-1.04-2.26-1.85-4.3-2.44c-0.54-0.16-1.18-0.32-1.9-0.49c-1-0.23-1.71-0.4-2.11-0.52c-0.47-0.14-0.86-0.28-1.17-0.41
	c-0.54-0.21-0.83-0.33-0.9-0.36c-0.31-0.08-0.48-0.05-0.53,0.12c-0.04,0.14,0.07,0.27,0.35,0.41l0.61,0.26
	c0.93,0.44,1.2,1.33,0.82,2.65l-0.36,1.34l-2.66,9.17c-0.42,1.44-0.81,2.37-1.17,2.79c-0.37,0.42-0.92,0.6-1.67,0.53
	c-0.23-0.02-0.37,0.04-0.41,0.16c-0.05,0.18,0.03,0.3,0.25,0.36c0.13,0.04,0.38,0.1,0.74,0.15c0.44,0.08,0.81,0.16,1.11,0.24
	l0.7,0.19l1.28,0.39c0.75,0.22,1.32,0.41,1.67,0.56c0.39,0.16,0.64,0.25,0.77,0.29c0.31,0.09,0.48,0.06,0.51-0.11
	c0.04-0.16-0.09-0.31-0.41-0.43c-0.78-0.32-1.32-0.66-1.62-1.06c-0.23-0.3-0.33-0.59-0.33-0.88c0-0.29,0.11-0.8,0.32-1.53l0.14-0.51
	l1.15-3.98c0.06-0.21,0.15-0.33,0.27-0.35l0.31,0.03l1.77,0.51c0.48,0.14,0.77,0.41,0.89,0.82l0.1,0.33l1.95,5.79
	c0.39,1.14,0.84,2,1.36,2.6c0.51,0.6,1.18,1.02,1.98,1.25c0.5,0.14,0.95,0.22,1.36,0.23c0.42,0.01,0.65-0.05,0.71-0.19
	c0.04-0.11-0.02-0.19-0.18-0.25l-0.42-0.15c-0.95-0.34-1.77-1.46-2.45-3.39l-0.25-0.72L155.73,24.53 M151.9,23.13
	c-0.4-0.12-0.65-0.24-0.73-0.39c-0.08-0.14-0.06-0.4,0.04-0.8l1.51-5.18l0.1-0.42c0.13-0.43,0.32-0.71,0.57-0.82
	c0.24-0.11,0.64-0.08,1.16,0.07c1.41,0.41,2.45,1.15,3.13,2.2c0.68,1.06,0.84,2.21,0.48,3.44c-0.31,1.06-0.88,1.8-1.73,2.22
	c-0.85,0.42-1.85,0.46-3.02,0.12L151.9,23.13 M182.37,31.01l0.64-1.25c0.39-0.75,0.74-1.23,1.05-1.41c0.3-0.2,0.74-0.22,1.3-0.07
	c0.21,0.04,0.33,0,0.37-0.1c0.07-0.18,0-0.33-0.21-0.44c-0.14-0.07-0.36-0.16-0.64-0.25c-0.33-0.11-0.75-0.31-1.26-0.57
	c-0.96-0.49-1.7-0.92-2.23-1.29c-0.22-0.15-0.4-0.25-0.5-0.3c-0.23-0.13-0.4-0.12-0.47,0.02c-0.08,0.15,0,0.3,0.22,0.46
	c0.78,0.58,1.27,1.09,1.45,1.54c0.18,0.44,0.14,1.02-0.13,1.74l-1.26,2.78l-0.83,1.58l-3.03,5.83c-0.08,0.13-0.17,0.19-0.25,0.15
	c-0.06-0.02-0.12-0.18-0.2-0.47l-4.99-18.08c-0.08-0.33-0.23-0.56-0.45-0.66c-0.1-0.06-0.26-0.13-0.46-0.22l-0.21-0.08l-0.82-0.45
	l-0.5-0.28c-0.09-0.05-0.15-0.09-0.2-0.11c-0.17-0.09-0.31-0.07-0.38,0.08c-0.08,0.14-0.01,0.3,0.19,0.44
	c0.79,0.56,1.22,1.34,1.27,2.36c0.05,1.01-0.28,2.2-0.99,3.56l-4.15,7.97c-0.44,0.85-0.88,1.4-1.33,1.65
	c-0.44,0.25-1.07,0.31-1.89,0.17c-0.28-0.05-0.44-0.01-0.5,0.11c-0.05,0.14,0.03,0.26,0.23,0.38c0.1,0.05,0.26,0.11,0.5,0.18
	c0.31,0.11,0.62,0.24,0.94,0.41l0.6,0.3l1.24,0.69c0.6,0.36,0.95,0.56,1.03,0.63c0.12,0.08,0.24,0.16,0.36,0.22
	c0.17,0.1,0.3,0.07,0.36-0.07c0.08-0.16,0-0.32-0.26-0.49c-0.6-0.43-0.95-0.79-1.06-1.11c-0.12-0.31-0.07-0.75,0.14-1.29l0.4-0.85
	l0.27-0.49l4.15-7.98c0.19-0.36,0.36-0.49,0.52-0.41c0.06,0.03,0.11,0.09,0.13,0.16l0.06,0.19l4.52,16.7l0.12,0.43
	c0.03,0.1,0.1,0.18,0.22,0.26c0.18,0.1,0.34,0.07,0.48-0.1c0.13-0.17,0.44-0.69,0.9-1.58l5.1-9.81L182.37,31.01z M190.81,36.54
	c1.1-1.52,2.01-2.18,2.71-1.98l0.74,0.2c0.23,0.08,0.39,0.07,0.48-0.05c0.09-0.12,0.03-0.25-0.17-0.4c-0.05-0.03-0.14-0.1-0.29-0.19
	l-0.79-0.48c-0.41-0.25-0.89-0.59-1.44-0.99c-0.91-0.66-1.6-1.22-2.09-1.69c-0.06-0.06-0.12-0.11-0.18-0.15
	c-0.23-0.16-0.38-0.17-0.48-0.03c-0.07,0.13-0.01,0.29,0.19,0.5c0.6,0.6,0.91,1.14,0.9,1.6c-0.02,0.46-0.35,1.14-1,2.03l-6.71,9.21
	c-0.67,0.91-1.18,1.45-1.55,1.62c-0.37,0.16-0.87,0.09-1.49-0.22c-0.26-0.13-0.42-0.14-0.52-0.01c-0.1,0.13-0.05,0.28,0.15,0.42
	c0.15,0.1,0.33,0.22,0.57,0.35l1.37,0.88l1.6,1.21c0.56,0.4,0.94,0.71,1.15,0.91c0.15,0.15,0.28,0.27,0.39,0.35
	c0.24,0.17,0.41,0.18,0.52,0.02c0.09-0.12-0.04-0.34-0.37-0.67c-0.43-0.4-0.7-0.76-0.81-1.07c-0.11-0.31-0.11-0.7,0.01-1.18
	c0.11-0.42,0.53-1.13,1.27-2.14L190.81,36.54 M198.48,52.9c0.37,0.36,0.57,0.61,0.59,0.75c0.03,0.13-0.05,0.44-0.25,0.92l-0.72,1.74
	c-0.56,1.39-1,2.26-1.33,2.59c-0.36,0.36-0.72,0.42-1.11,0.16l-0.37-0.23c-0.2-0.13-0.35-0.13-0.46-0.02
	c-0.14,0.14-0.12,0.3,0.06,0.46c0.06,0.07,0.18,0.15,0.36,0.25c0.26,0.19,0.85,0.73,1.77,1.63c0.88,0.86,1.48,1.45,1.8,1.81
	c0.18,0.2,0.31,0.32,0.36,0.38c0.18,0.18,0.32,0.22,0.43,0.12c0.13-0.11,0.11-0.29-0.06-0.53c-0.53-0.72-0.8-1.28-0.83-1.67
	c-0.02-0.39,0.18-1.12,0.61-2.18l0.29-0.72l5.89-14.53c0.11-0.26,0.11-0.44,0-0.55c-0.11-0.11-0.31-0.11-0.58-0.01l-15.67,5.75
	l-0.9,0.34c-0.43,0.15-0.88,0.24-1.37,0.3c-0.48,0.04-0.81,0.02-0.98-0.06l-0.46-0.26c-0.14-0.07-0.27-0.05-0.38,0.05
	c-0.11,0.12-0.08,0.27,0.1,0.44c0.03,0.03,0.24,0.18,0.63,0.45c0.12,0.09,0.27,0.23,0.47,0.41c0.41,0.4,0.77,0.77,1.06,1.09l0.88,1
	c0.14,0.15,0.24,0.27,0.31,0.34c0.2,0.19,0.34,0.23,0.43,0.12c0.11-0.13,0.08-0.31-0.08-0.55c-0.37-0.54-0.57-0.96-0.59-1.24
	c-0.03-0.29,0.11-0.58,0.4-0.87c0.3-0.31,0.91-0.64,1.84-0.98l2.03-0.73c0.61-0.24,1.02-0.34,1.22-0.29c0.2,0.04,0.54,0.3,1.03,0.78
	L198.48,52.9 M199.97,51.7c-0.06,0.14-0.12,0.23-0.16,0.27c-0.16,0.16-0.4,0.08-0.73-0.25l-3.01-2.95l-0.26-0.27
	c-0.3-0.3-0.38-0.53-0.21-0.69c0.05-0.05,0.2-0.13,0.46-0.22l5.95-2.17c0.18-0.07,0.3-0.08,0.34-0.03c0.09,0.09,0.07,0.28-0.05,0.57
	l-0.11,0.27l-2.1,5.26L199.97,51.7z"/>
<path style="fill:#003366;" d="M125.04,212.32c-48.12,0-87.27-39.15-87.27-87.27c0-48.12,39.15-87.28,87.27-87.28
	c48.13,0,87.28,39.15,87.28,87.28C212.33,173.17,173.17,212.32,125.04,212.32 M125.04,39.24c-47.31,0-85.8,38.5-85.8,85.81
	c0,47.31,38.49,85.8,85.8,85.8c47.32,0,85.82-38.49,85.82-85.8C210.86,77.73,172.37,39.24,125.04,39.24"/>
<path style="fill:#003366;" d="M125.04,216.74c-24.5,0-47.53-9.53-64.85-26.85c-17.32-17.31-26.85-40.34-26.85-64.84
	c0-24.5,9.54-47.53,26.85-64.85c17.32-17.32,40.35-26.85,64.85-26.85c50.57,0,91.71,41.14,91.71,91.7c0,24.5-9.54,47.52-26.86,64.84
	C172.57,207.2,149.54,216.74,125.04,216.74 M125.04,34.08c-50.16,0-90.97,40.81-90.97,90.98c0,50.15,40.81,90.96,90.97,90.96
	c50.16,0,90.98-40.81,90.98-90.96C216.02,74.89,175.21,34.08,125.04,34.08"/>
<g>
	<path style="fill:#003366;" d="M174.65,160.97c-0.64-26.65-22.59-57.13-52.61-73.57c11.96,12.44,21.16,28.65,26.09,46.01
		c5.01,17.69,4.99,35-0.07,47.48c-5.11,12.61-14.74,19.7-27.96,20.64c1.65,0.11,3.32,0.16,4.98,0.16c10.5,0,20.66-2.08,30.18-6.19
		C168.31,188.05,175.01,176.11,174.65,160.97"/>
	<path style="fill:#003366;" d="M189.83,128.82c5.12,8.62,6.93,17.68,5.41,26.97c4.23-9.64,6.37-19.91,6.37-30.61
		c0-42.2-34.33-76.53-76.53-76.53c-42.19,0-76.51,34.33-76.51,76.53c0,9.88,1.85,19.49,5.52,28.58c5.5,10.15,15.8,16.46,26.88,16.46
		c8.56,0,16.79-3.88,23.17-10.92c9.05-9.99,18.95-30.92,14.69-73.86l-0.07-0.71l0.69,0.16C140.18,89.81,176.03,105.56,189.83,128.82
		"/>
	<path style="fill:#003366;" d="M104.88,159.98c-6.57,7.26-15.07,11.26-23.92,11.26h0c-9.44,0-18.32-4.42-24.33-11.84
		c4.46,8.87,10.65,16.88,18.14,23.41c6.57,4.97,13.87,7.61,21.08,7.61h0.01c10.61,0,20.46-5.76,27.02-15.8
		c6.01-9.19,9.11-21.49,8.95-35.57c-0.18-15.38-4.11-32.35-11.69-50.5C123.63,129.71,113.85,150.09,104.88,159.98"/>
	<path style="fill:#003366;" d="M132.85,139.14c0.16,14.3-2.99,26.81-9.12,36.17c-6.75,10.32-16.89,16.23-27.83,16.23h0
		c-4.74,0-9.51-1.1-14.11-3.23c8.02,5.5,17.06,9.46,26.54,11.57c2.98,0.5,5.88,0.76,8.61,0.76h0.01c14.36,0,24.78-6.97,30.12-20.14
		c4.98-12.28,4.99-29.34,0.04-46.81c-4.94-17.42-14.23-33.68-26.3-46.06C128.63,106.14,132.67,123.46,132.85,139.14"/>
	<path style="fill:#003366;" d="M193.28,159.78c2.84-10.51,1.35-20.76-4.42-30.47c-12.8-21.52-44.74-36.54-65.61-42.36
		c14.02,7.85,26.76,19.09,36.19,31.99c10.11,13.84,15.86,28.76,16.18,42.02c0.31,13.06-4.5,23.79-14,31.42
		C175.16,184.99,186.25,173.62,193.28,159.78"/>
	<path style="fill:#FFC82E;" d="M174.12,138.95c-7.74,16.19-26.22,26.76-45.37,26.76c-17.04,0-32.01-8.87-40.55-22.24l22.21-16.61
		c2.97-2.3,3.04-5.65,3.05-8.12V85.22l8.16-6.03l32.62,9.31c2.38,0.66,5.63,1.5,8.65-0.73l13.72-9.81l-4.29-2.18l-2.68,1.18
		c-1.34,0.92-1.88,1.29-4.23,0.62l-36.68-10.27L99.94,88.46v37.91c0,2.44-0.52,3.01-1.75,4.05l-12.32,8.96
		c-3.32-6.53-5.19-13.92-5.19-21.76c0-18.93,10.93-35.31,26.84-43.15l-1.59-2.99c-22.72,7.21-39.19,28.47-39.19,53.58
		c0,31.03,25.16,56.2,56.2,56.2c25.63,0,47.25-17.15,54.01-40.59L174.12,138.95z"/>
</g>
</svg>
