<svg enable-background="new 0 0 269.49 264.79" height="313.436098" viewBox="0 0 269.49 264.79" width="319.044299" xmlns="http://www.w3.org/2000/svg" xmlns:xlink="http://www.w3.org/1999/xlink"><clipPath id="a"><path d="m0 0h269.49v264.77h-269.49z"/></clipPath><path clip-path="url(#a)" d="m132.4 264.79c-73.01 0-132.4-59.39-132.4-132.39s59.39-132.4 132.4-132.4 132.4 59.39 132.4 132.4-59.4 132.39-132.4 132.39m0-263.43c-72.26 0-131.04 58.78-131.04 131.04s58.78 131.03 131.04 131.03c72.25 0 131.03-58.78 131.03-131.03s-58.78-131.04-131.03-131.04"/><path d="m132.4 229.96c-53.79 0-97.56-43.77-97.56-97.56s43.76-97.56 97.56-97.56 97.56 43.76 97.56 97.56-43.77 97.56-97.56 97.56m0-193.76c-53.04 0-96.19 43.15-96.19 96.19s43.15 96.2 96.19 96.2 96.2-43.15 96.2-96.2c-.01-53.03-43.16-96.19-96.2-96.19"/><path d="m132.4 260.62c-70.7 0-128.22-57.52-128.22-128.22s57.52-128.22 128.22-128.22 128.21 57.52 128.21 128.22-57.51 128.22-128.21 128.22m0-255.76c-70.33 0-127.54 57.21-127.54 127.54s57.21 127.53 127.54 127.53 127.54-57.21 127.54-127.54-57.22-127.53-127.54-127.53m0 224.75c-53.61 0-97.22-43.61-97.22-97.22s43.61-97.22 97.22-97.22 97.22 43.61 97.22 97.22-43.62 97.22-97.22 97.22m0-193.75c-53.23 0-96.54 43.31-96.54 96.54s43.31 96.54 96.54 96.54 96.54-43.31 96.54-96.54c-.01-53.23-43.31-96.54-96.54-96.54"/><path d="m54.18 199.56c-.16-.2-.33-.28-.51-.25s-.37.13-.57.3l-11.67 9.71 2.93 3.51c.22.27.43.41.62.44s.43-.07.7-.3l.21.25-3.24 2.7-.21-.25c.47-.39.5-.83.09-1.32l-7.31-8.78c-.41-.49-.84-.54-1.31-.15l-.21-.25 3.24-2.69.21.25c-.28.23-.42.44-.43.64s.1.43.32.69l2.93 3.51 11.67-9.71c.2-.17.33-.34.4-.5.06-.17.01-.35-.15-.55l.33-.27 2.29 2.76z"/><path d="m38.79 176.85c.09-.16.07-.34-.05-.57l.37-.21 1.77 3.12-.37.21c-.12-.22-.28-.33-.46-.33s-.38.06-.61.19l-6.22 3.53 4.75 8.38 6.22-3.53c.23-.13.39-.27.48-.43s.07-.34-.05-.56l.37-.21 1.77 3.12-.37.21c-.13-.22-.28-.33-.46-.34-.18 0-.38.06-.61.19l-14.15 8.02c-.23.13-.39.27-.48.43s-.07.34.05.56l-.37.21-1.77-3.12.37-.21c.13.22.28.33.46.33s.38-.06.61-.19l5.87-3.32-4.75-8.38-5.87 3.32c-.23.13-.39.27-.48.43s-.07.34.05.57l-.38.21-1.77-3.12.37-.21c.13.22.28.33.46.34s.38-.06.61-.19l14.15-8.02c.24-.13.4-.27.49-.43"/><path d="m19.81 176.84c-.12.14-.14.32-.05.56l-.41.14-3.68-10.79c-.15-.45-.3-.71-.44-.8s-.33-.09-.58 0l-.1-.31 3.85-1.32.11.31c-.29.1-.5.25-.62.44-.12.2-.12.49.02.89l2.74 8.03 5.36-1.83-1.78-5.23c-.11-.31-.26-.54-.46-.69s-.48-.17-.85-.04l-.11-.31 4.1-1.4.11.31c-.34.12-.55.27-.63.47s-.06.48.06.84l1.8 5.28 5.75-1.96-2.94-8.6c-.12-.36-.3-.6-.53-.71s-.56-.1-.99.05l-.1-.31 4.04-1.38.1.31c-.43.15-.54.52-.34 1.12l3.94 11.53-.41.14c-.08-.24-.21-.38-.39-.41-.18-.04-.39-.01-.64.07l-15.39 5.25c-.24.11-.43.22-.54.35"/><path d="m26.83 132.71c-.16.12-.23.26-.22.43.01.09.17.26.5.52s.7.63 1.1 1.12c.41.49.78 1.12 1.12 1.9s.56 1.73.64 2.87c.09 1.27-.06 2.44-.46 3.53-.4 1.08-1.02 2.03-1.86 2.85s-1.85 1.48-3.05 1.99-2.52.81-3.97.92c-1.21.09-2.38-.02-3.51-.33-1.12-.31-2.14-.8-3.04-1.47s-1.64-1.51-2.21-2.51c-.58-1-.91-2.16-1.01-3.46-.07-.9-.02-1.72.13-2.44s.33-1.35.52-1.89c.2-.54.39-.99.57-1.34s.26-.59.25-.71c-.01-.14-.05-.23-.11-.26s-.14-.07-.24-.12l.26-.35 3.94 1.4-.19.37c-.13-.08-.28-.12-.47-.1-.19.01-.42.17-.7.46s-.54.69-.78 1.18-.44 1.06-.59 1.71-.21 1.33-.15 2.06c.05.72.24 1.44.57 2.16.33.71.8 1.33 1.41 1.86s1.38.94 2.3 1.24 2 .4 3.24.31c1.07-.08 2.04-.34 2.91-.77.87-.44 1.6-.99 2.2-1.65s1.05-1.4 1.35-2.21.42-1.64.36-2.47c-.05-.65-.22-1.26-.51-1.83s-.64-1.07-1.03-1.49-.78-.76-1.17-1.01c-.39-.24-.7-.36-.94-.34-.22.02-.38.07-.49.17l-.31-.33 3.28-2.26z"/><path d="m27.56 126.32c.2.1.43.2.68.32s.45.18.59.2c.26.03.41-.11.44-.42l.43.05-.36 3.33-.43-.05c.01-.11.01-.2 0-.29-.01-.08-.08-.17-.19-.25-.11-.09-.27-.18-.49-.3-.22-.11-.51-.26-.87-.45l-13.86-6.45c-.39-.19-.68-.33-.87-.42s-.35-.15-.47-.16c-.28-.03-.44.12-.48.44l-.43-.05.43-3.95.43.05c-.03.29.1.45.38.48.14.01.33-.01.57-.08s.56-.15.98-.25l14.73-3.66c.45-.12.79-.21 1.04-.27s.44-.13.56-.2c.13-.07.21-.15.24-.23.03-.09.06-.21.08-.38l.43.05-.41 3.76-.43-.05c.02-.22 0-.37-.08-.45s-.2-.13-.36-.15c-.12-.01-.25 0-.38.03s-.42.1-.87.19l-2.96.72-.83 7.66zm-4.37-8.22-8.73 2.15 8.1 3.72z"/><path d="m15.07 102.25c-.07.24-.03.43.1.57.14.13.37.24.69.33l14.49 4.02 2.44-8.81c.17-.61-.09-1.01-.78-1.2l.09-.32 3.97 1.1-.09.31c-.44-.12-.74.12-.91.74l-3.23 11.64-.41-.11c.07-.25.04-.43-.09-.56s-.32-.23-.57-.3l-15.67-4.35c-.25-.07-.47-.08-.64-.04-.17.05-.29.19-.36.44l-.42-.11.96-3.46z"/><path d="m36.61 93.98c.1-.23.09-.42-.02-.57-.11-.14-.29-.27-.53-.36l-15.04-6.18c-.24-.1-.45-.14-.63-.11-.18.02-.32.15-.41.39l-.4-.16 1.36-3.32.4.16c-.1.23-.09.42.02.57.11.14.28.26.53.36l15.04 6.18c.24.1.45.14.63.11s.31-.16.41-.39l.4.16-1.36 3.32z"/><path d="m39.06 72.16c-.31-.18-.56-.23-.73-.16-.26.08-.48.28-.66.6l-2.83 5.06 6.37 3.56c.23.13.43.19.61.19s.33-.12.46-.34l.37.21-1.75 3.13-.37-.21c.12-.22.14-.41.05-.56-.09-.16-.25-.3-.48-.43l-14.19-7.94c-.23-.13-.43-.19-.61-.19s-.33.12-.46.34l-.38-.21 5.71-10.21c.23-.41.33-.7.3-.86s-.16-.31-.38-.43l.16-.28 3.55 1.99-.16.28c-.27-.15-.52-.21-.75-.17s-.44.24-.65.61l-4.29 7.67 4.82 2.69 2.82-5.04c.23-.41.33-.7.3-.86s-.16-.31-.39-.44l.16-.29 3.57 1.99z"/><path d="m41.03 52.72c.95-.51 1.98-.79 3.08-.84s2.24.15 3.43.58c1.18.44 2.38 1.15 3.58 2.13s2.14 2.01 2.81 3.08 1.08 2.15 1.25 3.23.09 2.13-.24 3.16c-.32 1.02-.86 1.99-1.6 2.9s-1.58 1.63-2.52 2.16c-.93.52-1.95.81-3.04.87s-2.23-.13-3.41-.57-2.38-1.15-3.58-2.13-2.14-2-2.81-3.07-1.09-2.15-1.26-3.24c-.18-1.09-.11-2.15.2-3.19s.83-2.01 1.58-2.92c.73-.93 1.58-1.64 2.53-2.15m-1.88 8.21c.35 1.59 1.4 3.09 3.14 4.51s3.43 2.14 5.05 2.17c1.63.03 3.03-.68 4.19-2.11 1.17-1.44 1.58-2.95 1.22-4.53-.36-1.59-1.4-3.09-3.14-4.51s-3.43-2.14-5.05-2.17c-1.63-.03-3.02.68-4.19 2.11s-1.58 2.94-1.22 4.53"/><path d="m63.22 55.65c.17.06.35.01.55-.16l.28.33-2.74 2.31-.28-.33c.19-.16.28-.33.25-.51s-.13-.37-.3-.57l-10.49-12.43c-.17-.2-.34-.33-.51-.39s-.35-.01-.54.16l-.28-.33 6.97-5.87c1.37-1.16 2.65-1.64 3.82-1.46s2.31.92 3.4 2.22c.97 1.15 1.51 2.26 1.62 3.32s-.27 2.12-1.16 3.18l7.12 3.12c.4.16.68.25.85.27s.35-.06.56-.24l.28.33-3 2.53-.28-.33c.18-.15.28-.27.3-.34.02-.08-.01-.16-.09-.25-.09-.11-.21-.18-.36-.21l-7.08-3.21-3.83 3.21 4.43 5.26c.17.19.34.33.51.39m-1.95-11.35c.85-.71 1.26-1.42 1.26-2.14-.01-.71-.32-1.44-.94-2.17-.31-.37-.61-.65-.89-.85-.29-.2-.59-.31-.92-.33s-.68.06-1.06.24-.82.47-1.3.88l-4.45 3.75 3.75 4.45z"/><path d="m84.5 36.42-6.22-11.21c-.13-.23-.27-.39-.42-.48s-.34-.08-.57.05l-.21-.38 2.86-1.59.21.38c-.22.12-.34.28-.34.45 0 .18.06.39.19.61l7.89 14.22c.13.23.27.39.42.48s.34.08.57-.05l.21.38-3.05 1.69-.21-.38c.32-.18.43-.35.34-.52-.08-.15-.18-.25-.3-.31s-.21-.11-.27-.16l-15.52-7.98 7.09 12.78c.13.23.27.39.42.48s.34.08.57-.05l.21.38-2.86 1.59-.21-.38c.22-.12.33-.28.34-.45 0-.18-.06-.38-.18-.61l-7.89-14.22c-.13-.23-.27-.39-.42-.48s-.34-.08-.56.05l-.21-.38 4.02-2.23.21.38c-.17.1-.28.19-.31.28s-.02.19.05.32c.03.06.09.12.17.17s.16.09.24.13l13.69 7.06z"/><path d="m93.62 37.17c.24-.09.37-.22.4-.4s0-.39-.1-.63l-5.8-15.19c-.09-.25-.21-.42-.35-.54-.14-.11-.33-.12-.56-.03l-.15-.4 3.35-1.28.15.4c-.24.09-.37.23-.4.4-.03.18 0 .39.1.63l5.8 15.19c.09.25.21.42.35.54.14.11.33.12.57.03l.15.4-3.35 1.28z"/><path d="m102.54 32.15c-.02.23-.04.48-.07.75s-.02.48.01.62c.06.25.24.35.54.27l.1.42-3.24.79-.1-.42c.11-.03.2-.06.27-.1s.13-.13.17-.26.08-.32.12-.56c.03-.24.08-.56.13-.97l1.38-15.22c.05-.43.08-.75.1-.96s.02-.38-.01-.5c-.07-.28-.26-.38-.58-.3l-.1-.42 3.86-.93.1.42c-.28.07-.39.24-.32.52.03.14.12.31.26.51s.33.48.57.84l8.43 12.63c.26.38.46.67.61.88.14.21.27.37.38.46.11.1.21.15.3.15.1 0 .22-.02.38-.06l.1.42-3.68.87-.1-.42c.21-.05.34-.13.39-.22.05-.1.06-.23.02-.39-.03-.12-.08-.23-.15-.35-.08-.12-.23-.37-.48-.75l-1.68-2.54-7.49 1.81zm6.26-6.9-4.98-7.49-.76 8.88z"/><path d="m129.07 24.15c-.06.17-.09.32-.09.46 0 .33.15.68.47 1.04.31.36.73.69 1.24 1 .51.3 1.09.56 1.75.75.65.2 1.31.3 1.98.31 1.72.02 2.98-.3 3.75-.96.78-.66 1.18-1.52 1.19-2.57.01-.5-.09-.92-.27-1.26-.19-.34-.45-.6-.78-.78s-.72-.31-1.17-.39c-.44-.08-.92-.12-1.43-.13-.84-.01-1.72-.02-2.65-.05-.93-.02-1.79-.19-2.57-.49-.78-.31-1.42-.81-1.92-1.51s-.74-1.73-.73-3.09c.01-.86.2-1.64.57-2.34s.87-1.29 1.51-1.79c.63-.49 1.37-.88 2.23-1.15.86-.28 1.78-.41 2.78-.4.78.01 1.46.09 2.02.24.57.15 1.06.31 1.48.48s.76.33 1.03.48.5.22.68.22c.2 0 .35-.04.44-.14s.18-.2.27-.32l.32.18-1.54 4.1-.29-.25c.01-.07.02-.23.03-.47 0-.17-.11-.37-.32-.61s-.52-.48-.92-.71-.87-.43-1.42-.59-1.15-.25-1.81-.25c-1.47-.02-2.64.28-3.5.89s-1.31 1.42-1.32 2.42c0 .45.09.82.27 1.1.19.28.45.49.78.65s.72.26 1.17.32c.44.05.92.08 1.43.09.85.01 1.74.04 2.67.08.93.05 1.78.24 2.55.59.78.34 1.41.89 1.91 1.63.5.75.74 1.83.72 3.27-.01.77-.17 1.5-.48 2.2s-.76 1.32-1.37 1.86-1.35.96-2.23 1.26-1.91.44-3.07.43c-.98-.01-1.83-.12-2.54-.33s-1.32-.46-1.83-.74-.92-.53-1.24-.76-.59-.35-.78-.35c-.18 0-.37.14-.58.42l-.25-.19 1.52-4.1z"/><path d="m148.03 31.05c.25.04.43 0 .55-.14s.2-.33.24-.59l2.67-14.95-4.5-.8c-.34-.06-.59-.04-.76.06-.16.1-.28.33-.34.68l-.32-.06.74-4.15.32.06c-.11.6.15.96.78 1.07l11.25 2.01c.62.11.99-.13 1.1-.74l.32.06-.74 4.15-.32-.06c.06-.35.03-.61-.09-.76-.12-.16-.35-.26-.69-.32l-4.5-.8-2.67 14.95c-.05.26-.04.47.02.64s.22.28.47.32l-.07.42-3.53-.63z"/><path d="m160 31.82c-.14.18-.29.38-.46.6s-.28.4-.32.53c-.08.25.02.42.32.52l-.14.41-3.18-1.05.14-.41c.1.03.2.05.28.06.08 0 .18-.04.29-.13s.24-.23.4-.42.37-.44.62-.76l9.22-12.19c.27-.34.46-.59.6-.76.13-.17.22-.31.25-.43.09-.27-.02-.46-.33-.56l.14-.41 3.77 1.25-.13.41c-.28-.09-.46 0-.55.27-.04.14-.06.33-.04.57.01.24.03.58.04 1.01l.49 15.18c.02.46.04.82.05 1.07.01.26.04.45.08.59s.1.23.18.28.2.1.35.15l-.14.41-3.59-1.19.13-.41c.21.07.36.07.45.02.09-.06.17-.16.22-.32.04-.11.06-.24.05-.38 0-.14 0-.43-.01-.89l-.08-3.04-7.31-2.42zm8.96-2.55-.27-8.99-5.34 7.13z"/><path d="m176.33 39.88c.23.11.42.12.57.02s.29-.27.4-.5l6.8-13.58-4.09-2.05c-.31-.15-.56-.2-.75-.15s-.36.24-.52.56l-.29-.15 1.89-3.77.29.15c-.27.55-.13.96.44 1.25l10.22 5.12c.57.28.99.15 1.26-.39l.29.15-1.89 3.77-.29-.15c.16-.32.2-.57.13-.75s-.26-.35-.57-.51l-4.09-2.05-6.8 13.58c-.12.23-.17.44-.16.62s.13.33.36.44l-.19.38-3.21-1.61z"/><path d="m196.71 30.65c.02-.18-.08-.34-.28-.49l.25-.35 9.21 6.72c.38.28.65.41.82.4.16-.01.32-.12.47-.33l.27.19-2.4 3.29-.26-.19c.18-.25.27-.49.26-.72s-.19-.47-.52-.71l-6.86-5.01-3.34 4.58 4.46 3.26c.26.19.52.29.77.3s.49-.14.72-.45l.26.19-2.55 3.5-.26-.19c.21-.29.29-.54.25-.75-.05-.21-.23-.43-.53-.66l-4.51-3.29-3.58 4.91 7.34 5.36c.31.23.59.32.84.28s.51-.24.78-.61l.26.19-2.51 3.45-.26-.19c.27-.37.15-.74-.37-1.11l-9.85-7.18.25-.35c.2.15.39.19.55.12s.33-.21.48-.43l9.58-13.14c.15-.22.24-.41.26-.59"/><path d="m220.62 50.77c.06-.17.01-.35-.15-.55l.33-.27 2.27 2.78-.32.27c-.16-.2-.33-.28-.51-.25s-.37.13-.57.29l-8.87 7.25c-1.05.86-1.55 1.77-1.5 2.72s.56 2.02 1.53 3.2c.96 1.18 1.91 1.89 2.83 2.13s1.91-.07 2.97-.93l8.87-7.25c.2-.17.34-.33.4-.5s.01-.35-.15-.55l.33-.27 2.27 2.78-.33.27c-.16-.2-.33-.28-.51-.25s-.37.12-.57.29l-8.27 6.75c-1.11.91-2.11 1.52-3.02 1.85-.9.33-1.75.43-2.52.31-.78-.12-1.51-.46-2.19-1.01s-1.36-1.24-2.03-2.06c-.68-.83-1.22-1.63-1.62-2.4s-.58-1.56-.55-2.34c.03-.79.3-1.59.8-2.41s1.31-1.68 2.42-2.59l8.27-6.75c.2-.18.33-.35.39-.51"/><path d="m228.6 86.51 11.3-6.05c.23-.12.39-.26.49-.42.09-.15.08-.34-.04-.56l.38-.2 1.54 2.88-.38.2c-.12-.23-.27-.34-.45-.35s-.39.05-.62.18l-14.33 7.68c-.23.12-.4.26-.49.42-.09.15-.08.34.04.57l-.38.2-1.65-3.07.38-.2c.17.32.34.43.51.34.15-.08.25-.18.31-.29s.11-.21.16-.27l8.21-15.39-12.88 6.9c-.23.12-.4.26-.49.42-.09.15-.08.34.04.57l-.38.2-1.54-2.88.38-.2c.12.22.27.34.45.34.18.01.39-.05.62-.17l14.33-7.68c.23-.12.39-.26.49-.42s.08-.34-.04-.57l.38-.2 2.17 4.05-.38.2c-.09-.18-.18-.28-.27-.32s-.19-.02-.32.05c-.06.03-.12.09-.17.17s-.1.16-.13.24l-7.27 13.58z"/><path d="m227.72 95.62c.09.24.22.37.4.41.18.03.39 0 .64-.09l15.28-5.58c.25-.09.43-.2.54-.34s.13-.33.04-.57l.4-.15 1.23 3.37-.4.15c-.09-.24-.22-.37-.4-.41-.18-.03-.39 0-.64.09l-15.28 5.58c-.25.09-.43.2-.54.34-.12.14-.13.33-.04.57l-.4.15-1.23-3.37z"/><path d="m231.4 107.15c.06.25.14.41.24.48s.21.09.33.06c.16-.04.28-.07.36-.11s.2-.11.37-.23l13.92-8.74c.47-.3.76-.53.87-.71.11-.17.13-.39.07-.63l.42-.1.89 3.82-.42.1c-.11-.46-.35-.65-.72-.56-.09.02-.19.07-.28.13-.09.07-.2.14-.3.2l-12.32 7.72 14.41 1.21c.12.01.24.02.34.03s.2.01.29-.01c.19-.04.32-.13.4-.25s.09-.31.03-.58l.42-.1.88 3.76-.42.1c-.06-.25-.19-.43-.4-.55s-.55-.2-1.03-.23l-16.3-1.44c-.05-.01-.17-.02-.36-.04s-.34-.02-.46.01c-.11.03-.21.09-.27.17-.06.09-.06.27 0 .53l-.42.1-.95-4.06z"/><path d="m251.67 118.82c.15-.1.22-.28.2-.53l.43-.03.73 11.37c.03.47.1.77.21.89s.3.17.56.15l.02.33-4.06.26-.02-.33c.31-.02.55-.11.72-.27s.24-.44.21-.86l-.54-8.47-5.66.36.35 5.51c.02.32.11.59.27.79s.42.29.81.26l.02.33-4.33.28-.02-.33c.36-.02.6-.12.73-.29s.19-.45.16-.83l-.36-5.57-6.06.39.58 9.07c.02.38.13.66.32.82.19.17.51.24.97.21l.02.33-4.26.27-.02-.33c.45-.03.66-.36.62-1l-.78-12.16.43-.03c.02.25.11.42.27.5s.37.11.63.1l16.23-1.04c.27.01.48-.05.62-.15"/><path d="m234.55 140.38c-.16.07-.26.23-.29.49l-.43-.05.42-3.56.43.05c-.03.25.03.43.17.54s.35.18.61.21l16.15 1.89c.26.03.47.01.64-.06s.26-.23.29-.49l.43.05-1.06 9.05c-.21 1.78-.8 3.01-1.78 3.68s-2.31.91-4 .71c-1.5-.18-2.65-.61-3.46-1.31s-1.25-1.73-1.33-3.11l-7.33 2.6c-.4.15-.67.28-.8.39-.13.1-.21.29-.25.56l-.43-.05.45-3.89.43.05c-.03.23-.02.39.02.45.04.07.12.11.24.12.14.02.28-.01.41-.09l7.36-2.51.58-4.97-6.83-.8c-.27-.05-.48-.02-.64.05m9.18 6.93c-.13 1.1.05 1.9.55 2.42.49.51 1.22.83 2.17.94.48.06.88.06 1.23.01.34-.05.64-.18.89-.39s.46-.51.61-.9.27-.9.34-1.53l.67-5.78-5.78-.67z"/><path d="m236.66 158.66c-.14-.1-.29-.17-.42-.21-.32-.1-.7-.05-1.13.15s-.87.51-1.3.91c-.44.41-.84.9-1.21 1.47s-.66 1.18-.85 1.82c-.5 1.65-.54 2.94-.12 3.87s1.13 1.55 2.14 1.86c.48.14.91.17 1.28.09.38-.09.7-.26.97-.53s.5-.61.7-1.01.37-.85.52-1.34c.24-.8.5-1.64.79-2.54.28-.89.68-1.67 1.19-2.33s1.17-1.13 1.98-1.42 1.86-.23 3.17.16c.82.25 1.52.65 2.09 1.2s1 1.2 1.3 1.94c.3.75.46 1.57.49 2.47s-.1 1.83-.39 2.78c-.23.75-.49 1.37-.79 1.88s-.6.93-.88 1.29c-.28.35-.53.64-.75.85-.22.22-.35.42-.4.59-.06.19-.05.34.01.46.07.11.14.23.23.35l-.27.26-3.51-2.62.33-.21c.06.03.21.09.44.16.16.05.39 0 .68-.14s.6-.37.94-.68c.33-.32.65-.72.96-1.2s.56-1.04.75-1.66c.43-1.4.47-2.61.12-3.61-.34-1-1-1.65-1.96-1.94-.43-.13-.81-.15-1.13-.04-.32.1-.6.29-.84.57-.25.28-.46.62-.63 1.03s-.34.86-.48 1.35c-.25.82-.52 1.66-.82 2.54s-.73 1.64-1.27 2.29c-.55.65-1.25 1.11-2.1 1.38-.86.27-1.97.2-3.34-.21-.73-.22-1.39-.58-1.98-1.07s-1.06-1.1-1.41-1.84c-.35-.73-.55-1.57-.59-2.5s.11-1.95.44-3.07c.28-.94.63-1.72 1.03-2.35s.81-1.14 1.22-1.55.77-.73 1.08-.98.5-.47.55-.66c.05-.18-.03-.4-.25-.67l.28-.2 3.52 2.6z"/><path d="m226.28 172.84c-.1.23-.1.42 0 .57s.28.27.52.38l14.84 6.64c.24.11.45.15.63.13s.32-.15.42-.38l.39.17-1.47 3.27-.39-.18c.1-.23.1-.42 0-.57s-.28-.27-.52-.38l-14.84-6.64c-.24-.11-.45-.15-.63-.13s-.32.14-.42.38l-.39-.18 1.47-3.27z"/><path d="m220.77 183.86c-.13.22-.15.41-.07.56.09.16.24.31.47.44l13.01 7.83 2.36-3.92c.18-.29.25-.54.21-.73s-.21-.38-.52-.57l.17-.28 3.61 2.17-.17.28c-.52-.31-.95-.2-1.28.34l-5.89 9.79c-.33.54-.23.97.29 1.29l-.17.28-3.61-2.17.17-.28c.31.18.55.25.74.19s.37-.23.55-.53l2.36-3.92-13-7.81c-.23-.13-.43-.2-.61-.21-.18 0-.34.11-.47.32l-.37-.22 1.85-3.07z"/><path d="m211.67 197.09c-.16.19-.21.38-.15.55s.19.34.39.51l4.98 4.2 10.56 2.03c.49.08.86.13 1.11.13.25.01.44-.08.58-.24l.33.28-2.65 3.14-.33-.28c.27-.36.29-.64.05-.84-.09-.08-.23-.12-.42-.14s-.39-.05-.59-.11l-7.57-1.47 2.76 7.51c.04.13.09.28.14.44s.12.28.21.36c.22.19.46.12.71-.18l.33.28-2.52 3-.33-.28c.16-.19.22-.42.16-.66s-.16-.6-.3-1.06l-3.7-10.17-4.99-4.2c-.2-.17-.39-.27-.57-.3s-.35.05-.51.25l-.33-.28 2.31-2.74z"/><path d="m70.36 230.91c-1.02 1.55-2.99 2-4.45 1.04-1.47-.97-1.83-2.94-.8-4.51 1.01-1.53 2.96-2 4.45-1.01 1.47.96 1.82 2.95.8 4.48"/><path d="m96.5 248.12c.24.07.43.04.56-.08s.23-.31.3-.56l3.73-12.94c-.12-.04-.27-.06-.43-.09-.16-.02-.32-.02-.47.01s-.29.1-.42.21-.22.27-.28.48l-.31-.09 1.01-3.51.31.09c-.13.44-.08.69.15.75.21.06.49.04.84-.06s.57-.3.65-.59c.13-.44-.01-.71-.41-.83l.12-.41 3.08.89-.12.41c-.21-.06-.37-.04-.47.07-.11.11-.21.32-.3.64l-4.5 15.59c-.07.25-.09.47-.04.64.04.18.19.3.43.37l-.12.41-3.45-.99z"/><path d="m115.01 241.25c-.31-.68-.42-1.48-.33-2.41.09-.86.32-1.59.69-2.22.37-.62.85-1.13 1.44-1.53s1.26-.68 2.03-.84c.76-.16 1.58-.2 2.45-.11s1.66.29 2.37.6c.72.31 1.32.72 1.82 1.23.5.5.86 1.1 1.11 1.78s.32 1.45.23 2.31c-.09.93-.36 1.69-.81 2.29-.44.6-1.02 1-1.73 1.19v.04c.73.34 1.31.94 1.73 1.81s.58 1.84.47 2.91c-.1.95-.34 1.77-.74 2.45s-.91 1.22-1.53 1.63c-.62.4-1.35.67-2.17.79s-1.71.13-2.67.04c-.96-.1-1.83-.29-2.61-.57s-1.44-.68-1.97-1.21c-.53-.52-.92-1.15-1.18-1.9-.25-.75-.33-1.59-.24-2.54.11-1.07.46-1.99 1.04-2.76.59-.77 1.27-1.24 2.06-1.43v-.04c-.66-.33-1.14-.83-1.46-1.51m3.52 3.07c-.56.1-1.06.27-1.5.52-.45.24-.81.57-1.1.97s-.46.88-.51 1.43c-.06.55.02 1.05.22 1.5s.49.84.88 1.17.84.6 1.37.8c.53.21 1.09.34 1.68.4.6.06 1.17.04 1.73-.06s1.06-.27 1.5-.52c.44-.24.81-.57 1.1-.97s.46-.88.51-1.43c.06-.55-.02-1.05-.22-1.5s-.49-.84-.88-1.17-.84-.59-1.37-.8-1.09-.34-1.68-.4c-.6-.06-1.17-.04-1.73.06m3.47-2.27c.49-.06.93-.18 1.32-.37s.72-.45.98-.78.42-.76.47-1.28-.02-.98-.2-1.35c-.19-.38-.46-.7-.81-.96s-.76-.47-1.22-.63c-.47-.15-.96-.26-1.49-.31-.51-.05-1.01-.05-1.51.01s-.94.18-1.34.37c-.39.19-.72.45-.98.78s-.42.76-.47 1.28.02.97.21 1.35.46.7.81.96.76.47 1.24.63.97.26 1.47.31c.53.05 1.03.05 1.52-.01"/><path d="m133.64 241.56c.29-.07.47-.21.54-.42s.09-.65.03-1.31l-.27-3.47c-.03-.36-.1-.59-.21-.7s-.28-.16-.52-.14l-.03-.43 10.84-.85c.27-.02.45-.1.53-.24s.11-.36.08-.67l.33-.02.34 4.31-.33.03c-.02-.31-.09-.53-.19-.67s-.29-.19-.56-.17l-8.17.64.33 4.18c.65-.51 1.32-.87 2.02-1.08s1.33-.34 1.91-.38c.92-.07 1.76.02 2.53.29.77.26 1.44.66 2 1.19.57.53 1.02 1.18 1.37 1.94.34.76.55 1.61.62 2.54.17 2.09-.24 3.8-1.21 5.12s-2.57 2.07-4.8 2.24c-.89.07-1.68.03-2.37-.14-.69-.16-1.29-.36-1.78-.61s-.89-.48-1.19-.7-.5-.32-.61-.31c-.18.01-.32.12-.41.32l-.32-.23 1.59-3.72.27.27c-.06.22-.08.44-.06.65.01.19.14.42.37.69s.56.52.99.75.94.42 1.55.56c.6.14 1.29.19 2.07.13 1.19-.1 2.14-.55 2.83-1.36s.98-1.93.87-3.36c-.09-1.21-.52-2.16-1.29-2.83-.76-.67-1.71-.96-2.85-.87-1.09.09-1.93.34-2.52.75-.59.42-.88.78-.85 1.09 0 .07.07.2.19.38l-.27.42-3.36-3.47z"/><path d="m151.24 232.37c.08.3.18.5.3.6s.31.12.58.05l10.6-2.82c.26-.07.42-.18.47-.33.06-.15.04-.37-.04-.67l.32-.08.76 2.84-2.23 16.48c0 .12-.02.23-.04.32s-.02.21.02.35c.06.21.24.27.56.19l.11.42-3.66.97-.11-.41c.33-.09.54-.25.62-.48s.15-.6.22-1.12l2.03-15.55-8.97 2.39c-.26.07-.42.19-.47.35s-.04.39.04.69l-.32.08-1.11-4.18z"/><path d="m199.07 226.69c1.04 1.54.71 3.53-.74 4.51-1.46.99-3.42.57-4.47-.98-1.03-1.52-.71-3.5.76-4.5 1.45-.98 3.42-.55 4.45.97"/><path d="m97.82 80.56c3.25.02 4.9.02 5.6-.04 1.04-.08 5.96 0 5.96 0v-.89s-5.39.04-9.21.06z"/><path d="m95.85 68.17-10.04-1.02s-6.7-.97-7.29-.94-.9 1.07-.73 1.35c.34.56 1.38.2 1.88.2s2.86.08 3.37.14c.5.06 3.31.37 5.44.48s4.8.25 5.42.28 1.04 0 1.04 0l.03.09s.56.06.73-.03c.17-.08.25-.14.25-.28.01-.16-.1-.27-.1-.27"/><path d="m95.46 62.83s-3.68-1.77-4.18-1.85-1.09-.56-1.43-.65c-.34-.08-6.68-2.72-7.52-2.97s-2.36-.73-2.81-.62-.53.22-.48.36c.06.14.54.62.9.76s.79.25.79.25l.42.36h.56s8.54 3.26 8.76 3.28c.23.03 1.41.39 1.88.53.48.14 1.21.28 1.6.39s.67.25.84.31.39.17.53.08c.14-.06.14-.23.14-.23"/><path d="m94.17 54.8s3.68 4.21 3.73 4.38c.06.17.06.28-.09.39-.14.11-.45-.03-.45-.03s-2.64-2.47-2.78-2.58-.25-.5-.34-.62c-.08-.11-4.18-4.27-4.38-4.41s-.25-.2-.48-.31-.42-.45-.56-.59-.14-.22-.28-.31c-.14-.08-1.35-.98-1.46-1.24-.11-.25-.17-.56.14-.76s.56-.28.95-.17.9.5 1.12.73c.24.25 4.88 5.52 4.88 5.52"/><path d="m100.85 48.6s-.11-4.21-.2-4.55c-.08-.34-.25-.53-.59-.48-.33.06-.64.23-.64.45s.31 2.47.34 2.84c.03.36.14 1.85.2 2.53.06.67.08 1.54.11 2.02s0 1.52.06 1.71c.06.2.08.25.22.22s.17-.14.23-.31c.05-.17.05-1.46.11-1.57s.11-.22.11-.39c-.01-.17.05-2.47.05-2.47"/><path d="m104.87 59.07s1.21-1.26 1.46-1.6.87-1.43 1.63-2.3 1.32-1.69 1.54-1.85c.23-.17.37-.22.53-.36.17-.14.14-.39.42-.73s1.8-2.44 1.99-2.61c.2-.17.28-.37.56-.42.28-.06.65-.06.87.03.22.08.42.34.31.51s-2.25 2.5-2.36 2.67-.25.48-.48.78c-.22.31-1.57 1.57-1.74 1.8-.17.22-.34.28-.39.45-.06.17-.2.37-.2.37s-.96.93-1.07 1.12c-.11.2-.25.39-.25.39s-1.57 1.57-1.88 1.94c-.31.36-1.1 1.4-1.4 1.51-.31.11-.66.15-.79-.31-.07-.32 1.25-1.39 1.25-1.39"/><path d="m111.41 61.65s5.95-3.48 6.29-3.76.87-.45.98-.54c.11-.08 1.32-1.07 1.83-1.04.5.03.98.14.95.45s-.11.36-.28.48c-.17.11-1.01.84-1.38 1.15-.36.31-.93.56-1.15.65s-.59.14-.59.14-.79.65-1.46 1.01-1.29.53-1.46.67-.56.56-1.01.76-1.09.28-1.32.45c-.22.17-.42.48-1.18.84-.76.37-4.72 2.47-5.33 2.72-.62.25-.76.28-.93.2-.17-.09-.31-.17-.25-.31s1.24-.81 1.35-.84 1.1-.56 1.54-.84c.45-.28 1.32-.95 1.55-1.07.22-.11 1.85-1.12 1.85-1.12"/><path d="m106.05 67.83c.42-.03 1.99-.14 2.33-.14s1.29.03 1.88-.06c.59-.08 4.1-.42 5.33-.51 1.24-.08 3.57-.42 4.13-.45s1.6-.17 1.88-.03.48.34.36.53c-.11.2-.45.45-.7.59s-.9.22-1.26.28c-.37.06-4.77.22-5.48.25-.7.03-1.54-.03-1.77-.03-.22 0-.93.06-1.32.06s-1.46.03-1.91.08-1.07.03-1.26.08c-.2.06-1.18.06-1.49.06s-1.07-.03-1.4-.06c-.34-.03-.66-.08-.65-.25.04-.26 1.33-.4 1.33-.4"/><path d="m101.57 72.11c-.34.03-1.5-.16-1.81-.63s-1-1.81-1.16-2.22-.65-1.94-.75-2.5-.31-1.28.09-2.94c.4-1.65.78-3.06 1-3.68s.53-1.16.63-1.5c.09-.34.22-.81.22-.81l.12-.13s.13-1.53.22-1.84.16-.47.34-.44c.19.03.31.41.31.66s.03.84.06 1.16c.03.31.19.47.25.72s.28 1.19.47 1.69.41 1.09.5 1.31.38.47.41.62c.03.16.28.38.28.5 0 .13 0 .38.06.63s.69 1.12.78 1.37.44 2.65.4 3.5c-.03.84-.09 2-.44 2.62-.34.62-.41 1.19-.84 1.53-.42.35-1.14.38-1.14.38m.03-.66c.41-.02.62-.4.84-.87s.5-1.34.59-2.06-.06-2.22-.16-2.59c-.09-.37-.56-.81-.56-1s.03-.41.03-.59c0-.19-.37-.38-.41-.5-.03-.12-.12-.41-.16-.5-.03-.09-.16-.34-.28-.66-.12-.31-.41-.75-.69-1.37-.28-.63-.44-.78-.59-.75-.16.03-.16.22-.22.34s-.53 1.22-.62 1.44c-.1.22-.1.56-.16.81s-.25.53-.34.65c-.09.13-.13.47-.13.94s-.03 1.44.03 2 .34 1.75.47 2.37.97 1.53.97 1.53.36.87 1.39.81m-1.37-2.23c.18.41.77 1.13 1.13 1.08s.45-.68.59-1.13c.13-.45.04-2.17.04-2.3s-.23-.31-.27-.5c-.04-.18-.09-.59-.23-.99-.13-.41-.31-1.31-.45-1.62-.13-.32 0-.68-.13-.9-.14-.23-.41.22-.59.5-.18.27-.32 1.08-.5 1.67s-.23 1.4-.14 2.35c.01-.01.37 1.43.55 1.84"/><path d="m160.9 61.02c.75.15 2.67.76 3.22 1.11s1.16.66 1.16 1.11-.05.76-.45.91-1.51.25-1.76.75-.25 1.01-.05 1.56.25 1.26 1.16 2.27c0 0 1.37 1.42 2.62 1.96s2.83.93 3.45 1.09c.61.16 1.98.42 2.64.52.65.11 2.25.22 2.53.22.29 0 3.34.02 4.42-.27s2.68-.84 3.08-1.3c.39-.46 1.58-1.69 1.81-3.07.23-1.37.53-3.24-1.07-4.94s-3.14-1.64-3.67-1.64-.88.29-.94.43-.1.47.08.74c.19.27.64.7.58 1.02-.06.33-.76 1.31-1.76 1.6-1.01.29-2.26.29-2.83-.29-.58-.57-.59-.45-.82-.8s-.72-1.66-.47-2.81.98-2.4 1.7-3.16 2.21-1.33 4.12-1.37 3.75.35 5.02.98c1.27.64 2.48 1.68 3.4 2.89s1.74 3.01 2.17 4.23c.43 1.21.92 3.94.92 5.58s-.43 4.94-1.72 6.81-5.25 6.01-6.69 7.07c0 0-5.13 3.59-5.82 3.88-.7.29-6.72 3.46-7.57 3.77-.84.31-4 1.34-4.63 1.52-.64.18-1.72.41-1.99.49s-.86-.02-1.03.27c-.16.29-.37 1.48-.64 1.64s-.96.14-.96.14.04.43-.1.53-.94.88-.7 1.93c.19.8 1.72 1.85 3.84 2.58 0 0 5.62 1.7 7.51 2.01s5.5.76 6.19 1.07c.7.31 1.35.62 1.64.82.29.21 1.03.66 1.17.82s.16.37.37.45.84.17 1.17.31 1.01.37 1.15.9.21 1.03.21 1.03l-1.99.06s-2.2-2.29-3.94-3.19c-.65-.34-5.01-2.28-5.81-2.24-8.2.45-7.04.3-11.75 1.81-3.23 1.03-5.08.87-6.07.9-.75.02-5.43-.65-5.43-.65l-1.48 3.62s-14.01.13-15.55.07c0 0-3.7-.16-4.11-.43s-.22-1.1.1-1.35c.33-.25 1.06-.35 1.2-.39s.39-.08.51-.18.02-.65.24-.88c.23-.22.67-.35.8-.47.12-.12.08-.53.47-.73s2.67-1.06 3.57-1.3c.9-.25 3.92-.8 4.89-1 .98-.2 4.81-1.24 5.57-1.45.75-.2 2.2-.81 2.53-1.04.32-.22.69-1.12.73-1.49s.12-1.16.1-1.41c-.02-.24-.02-.45-.23-.49-.2-.04-1.41-.06-1.63-.12s-.41-.39-.45-.57.14-.92 0-1.08-.08-.37-1.04-.53-7.16-2.04-7.77-2.3c0 0-3.76-1.89-4.24-2.21-.47-.31-3.51-2.4-4.62-3s-6.01-3.45-7.68-4.27c-1.68-.82-5.18-2.59-7.93-3.23-2.75-.63-5.41-.82-7.43-.35s-5.28 1.68-5.94 1.96-1.64.85-2.06 1.04c-.41.19-.92.32-1.17.19s-.37-1.46-.65-1.74c-.46-.46-1.09-1.08-1.09-1.08s-.11-.13-.13-.17c-.06-.18-.03-.26 0-.36.04-.15.5-.39 1.08-.64.79-.35 1.78-.73 2.18-.97.69-.41 2.47-1.36 2.62-1.77.16-.41.6-1.8.57-2.25-.03-.44-.22-.82-.06-1.01.43-.51.59-.09 1.86-.12 1.26-.03 1.4-.42 1.84-.33.44.1.6.19.7.47.09.29.1.95.47 1.17.38.22 4.11.38 5.57.32 1.45-.06 8.38-.25 9.07-.25s7.96-.19 9.51-.25 6.39-.06 6.7-.06c.32 0 .57.03.63-.16s.1-.63.51-.79 1.9-.88 2.37-1.2c.48-.32 1.39-1.01 1.45-1.33.07-.32.03-.95.19-1.07.16-.13.6-.47.63-.7.03-.22.07-.63.07-.63s-.38-.32-.38-.51.41-.35.41-.6.06-.63-.16-.69-1.3-.16-1.58-.32-.1-.73.1-.85c.19-.13.66-.26.91-.38.25-.13 1.26-1.11 2.81-1.74s3.41-1.04 4.58-1.26 3.13-.63 3.64-.79 1.04-.63.95-.86c-.1-.22-.35-.88-1.14-1.01s-1.68-.07-1.74-.16.73-1.14 2.18-1.29c1.45-.16 1.99.09 2.43.41s1.17 1.04 1.17 1.55-.22 1.17.06 1.46c.29.28 2.03.47 2.91.66.89.19 2.62.6 2.62.6m-19.72 2.52s4.5-.03 5.41-.03 3.39-.16 3.9-.16c.5 0 4.62-.09 5.09-.09s1.35.03 1.57-.16.09-.41-.16-.63-1.04-.94-2.83-1.16-3.77-.22-4.9-.16-2.99.35-3.62.47-1.51.53-1.82.6c-.31.06-.94.19-1.35.44s-.88.57-1.04.66c-.15.1-.25.22-.25.22m7.27 1.83c-.25 0-1.23-.13-1.38-.19-.16-.06-.28-.19-.28-.19s-3.55-.03-3.74-.03-.38-.06-.38.09c0 .16.09.31.28.44.19.12.82.53 1.67.53s1.23-.19 1.54-.25c.32-.06.66-.12.97-.09.32.03 1.01 0 1.13-.06s.19-.25.19-.25m.03 1.47c-.47 0-.91-.06-1.23-.06-.31 0-.53.25-.78.25s-.6-.16-.82-.16-.76.19-1.04.22-.85 0-1.1 0-.75.13-.66.28c.09.16 1.57.13 1.89.16.31.03.75-.22.91-.22s.78.19.94.19.19-.06.34-.09c.16-.03.44.13.66.13s1.67 0 2.39-.06 3.87-.06 4.15-.16c.28-.09.82-.09.98-.12s.34-.16.15-.32-.82-.09-1.41-.09-3.46.03-4.28.03c.01-.01-.62.02-1.09.02m-11.48 5.82s11.03-.06 12.23-.03c1.19.03 5.75 0 6.51 0s2.7-.06 2.83-.22.31-.38.16-.54c-.16-.16-.47-.38-.44-.5s.66-.41.53-.57-1.01-.28-1.16-.44c-.16-.16.41-.63.13-.72s-.76-.03-.95-.25-.16-.57-.47-.63-2.64-.06-3.02-.06-1.98.1-2.77.1-1.92-.22-2.52-.16-1.23.16-1.82.19c-.6.03-3.17-.19-3.74-.03s-1 .6-1.98 1.44c-.98.85-1.54 1.16-1.89 1.35s-.79.06-1.01.19c-.22.12-1.19.63-1.13.75.07.13.51.13.51.13m39.84.82c-.47.21 1.13.79 2.05.79.22 0 .58.19.89.21.95.03 2.1-.14 2.22.1.06.11-.34.4-.75.99-.19.26-.29.69-.48.99-.56.89-1.01 1.63-.79 1.71.48.16 2.37.18 3.16-.08s2.27-1.16 2.58-.9c.32.26-.45 1.05-.65 1.7-.05.15-.32.22-.45.38-.17.2-.2.48-.1.58.12.12.43-.31 1.04-.93.25-.26.69-.8.98-1.17.35-.45.98-.86 1.29-1.45.63-1.17 1.56-3.1 2.05-5.27.28-1.21.33-2.38.23-3.5-.05-.51-.22-.96-.32-1.45-.1-.45-.17-.96-.35-1.41-.29-.75-.65-1.47-.91-2.07-.31-.72-.35-1.18-.78-1.76-.61-.82-1.54-1.54-2.09-1.98-2.11-1.74-7.17-2.32-9.07-.9-.71.53-1.12 1.1-1.33 1.68-.35.96-.16 1.94.07 2.8.37 1.37 2.11 1.85 3.06 1.32s-.16-1.63-.52-2.37c-.37-.74-.56-1.3-.29-1.72.26-.42.67-1.52 3.68-1.25 2.08.18 3.76 1.92 4.66 3.99.23.54.44 1.8.44 3.78 0 1.32-.48 2.39-1.03 3.27-.6.96-1.31 1.69-2.14 2.17-.92.53-1.94.68-2.39.82 0 0-.65.32-1.42.49-1.08.21-2.26.32-2.54.44m-83.5 5.43s.62.62.85.85c.26.25.41.85.41.85s3.89-1.97 4.82-2.3c.92-.32 2.81-.69 3.27-.83s1.52-.05 2.03-.14c.29-.05.83-.23 1.15-.28s1.24.05 1.47.09c.23.05 1.11.09 1.66.09s2.44-.05 6.22 1.2c3.78 1.24 10.92 6.54 11.25 6.82.32.28 2.89 1.56 3.26 1.73.37.16 1.69.72 2.17.94s2.52 1.12 2.76 1.18.28.15.44-.13c.17-.28-.07-1.12-.18-1.51s-.84-1.1-1.49-1.53c-.64-.42-1.6-.51-1.91-.48-.31.04-.61.15-.86.28-.26.13-.48.05-.55-.04s.22-.42.35-.55.18-.18.24-.31c.05-.13.07-.07.44-.31s1.08-.37 1.65-.39 2.15 1.03 2.3 1.07.31.07.55.07.28.24.29.37c.02.13-.07 2.28-.04 2.43.04.15.24.57.29.74.05.16.15.57.29.71.15.15.83.48 1.12.57s.77.31 1.6.5c.83.18-.15.13 2.24.7s6.85.77 7.47.79c.63.02 3.13.15 3.42.05.29-.09.35-.24.73-.66.39-.42.75-1.76.84-2.96.09-1.19-.53-2.13-.94-2.76-.4-.62-1.43-1.32-1.84-1.4-.4-.07-.68-.02-1.03.07s-.99.38-1.29.66c-.29.28-.7.79-.97 1.69-.28.9-.15 1.56-.09 1.98s.31 1.98.37 2.2c.05.22-.02.4-.13.48-.11.07-.14.02-.27-.04-.13-.05-.53-.94-.66-1.23s-.18-1.03-.24-1.63c-.06-.61.11-2.28.02-2.65s-.62-.7-1.03-1.03c-.4-.33-.77-.51-1.67-.48-.9.04-1.4.42-1.67.61-.28.18-.59.66-.64 1.06-.06.41.03 1.08.05 1.32s.07 1.06-.24 1.08-.97-1.38-1.14-1.78c-.17-.41-.7-.81-.84-.92-.15-.11-.63-.57-.79-.7s-.68-.16-.88-.15c-.2.02-.52.02-.79.16-.28.15-.75.26-.9.09-.15-.16.2-.7.46-.88s1.12-.61 2.06-.62c.94-.02 2.15 1.19 2.55 1.19.41 0 .96-.66 1.38-1.01s1.49-.55 2.02-.57.96.09 1.54.26c.59.16 1.36 1.1 1.73 1.12s.48-.15.95-.55c.48-.4 1.53-1.1 2.81-1.07 1.29.04 2.31 1.09 2.7 1.56.39.48.94 1.34 1.05 2.68s-.59 3.88-.66 4.12.04.48.39.61.96.16 1.84-.04 1.4-1.66 1.91-3.22c.52-1.56.2-2.92-.33-3.93s-1.47-.86-1.8-.88-1.62.37-1.75.22.17-.44.59-.81 1.69-.5 2.17-.5 2.17.13 2.81 1.34.64 2.52.72 3.12c.08.61-.25.88-.37 1.25-.11.37-.11.79-.31 1.16s-.84 1.27-.72 1.56c.13.29.28.24 1.14.15s1.49-.59 1.91-.83.4-.63.53-.85.26-.22.94-2.08-.31-3.26-.42-3.46-.57-.59-1.03-.59-.99.37-1.27.46c-.27.09-.5.24-.66 0-.17-.24.77-.81 1.01-.94s.28-.06.55-.13c.28-.07.5-.41.77-.57.28-.17.64-.09 1.05-.29s.42-.53.75-.72c.33-.18 1.01.09 1.17-.04s-.24-.44-.04-.7 1.08-.17 1.56-.2c.48-.04 1.45-.04 1.74-.07.3-.04 1.34 0 1.29-.22-.04-.14-1.12-.14-1.36-.14s-1.12.15-1.36.15-.86-.13-.86-.44.74-.28 1.03-.31c.29-.04.59-.15 1.01-.15s2.04.02 2.63-.02 1.58-.09 1.65-.22-.24-.2-.5-.28c-.26-.07-1.03-.11-1.25-.11s-1.08.18-1.32.2-.5.02-.83-.06c-.33-.07-.68-.24-.68-.48s.47-.28.92-.35c.44-.07 2.37-.07 3.31-.15.94-.07 1.67-.28 1.62-.52s-1.49-.02-1.69-.02-1.03-.15-1.21-.15-.66.04-1.32.05c-.66.02-.77-.26-.86-.39s.11-.26.26-.33 1.53-.09 1.82-.13.73-.07.79-.27-.86-.15-1.01-.15-.74-.11-.81-.37c-.08-.26.53-.29.55-.55s-.64-.44-.66-.62c-.02-.19.29-.31.35-.44s0-.26-.09-.42c-.09-.17-.6-.16-.92-.16s-15.89.39-18.15.39c-2.25 0-14.03.19-16.34.19-2.32 0-25.1.39-26.32.39s-5.15.13-5.92-.39-1.29-1.09-1.61-1.42c-.32-.32-1.18-.02-1.51.24-.2.16-.26.98-.36 1.56-.06.37-.28.51-.46.9-.45 1.03-3.73 2.38-3.73 2.38zm73.18 10.04c-.04.13-.49.93-.24 1.04.45.19.93-.34 1.08-.48.15-.13.65-.24.8-.37s.02-.67.07-.8c.04-.13.56-.19.65-.3s.13-.65.22-.95.37-.99.41-1.36-.07-1.01-.45-1.53c-.39-.52-.82-.22-1.25.11-.43.32-.28 1.51-.3 1.73-.02.21-.13.5-.22.78s.04.5-.26 1.21c-.01-.01-.46.79-.51.92m6.87-4.86c-.13-.11-.15-.26-.17-.43s-.09-.19-.22-.28-.37.15-.45.28.19.54.26.73.13.58.13.86-.22 1.06-.26 1.25-.56.99-.52 1.1.26.02.26.02.2-.28.32-.39c.13-.11.54-.11.67-.17s.71-.58.8-.71.02-.37.04-.5.3-.32.35-.45c.04-.13-.02-.26-.02-.39s.22-.69.2-.8-.71-.02-.71-.02-.56.01-.68-.1m-25.32 12.01c-.12 0-.08.16-.1.26s.07.19.13.25.64 0 .87-.03 1.75-.06 2.26-.07 3.41-.07 3.96-.13 1.86.01 2.39.03c.52.01 1.56.22 1.63.22s.14-.17.22-.31c.07-.13.2-.35.17-.41s-.74.1-.9.09-1.28-.1-2.33-.17-3.56-.07-4.04-.04-2.59.2-3.21.26c.01-.01-.93.05-1.05.05m-11.89 9.09s5.4-.06 5.73-.09c.32-.03.62-.77 1.01-.86.38-.09 2.25-.09 2.58-.24s.62-1.01.98-1.39 1.19.09 1.57.12 1.28.03 1.54 0c.27-.03 1.19-.27 1.19-.36s-.62-.21-.89-.36-.44-.36-.42-.48c.03-.12.38-.21.56-.21s1.19-.03 1.33-.06c.15-.03.45-.18.42-.3s-.33-.39-.33-.54 1.04-.33 1.04-.56c0-.24-.09-.53-.09-.68s.12-.39-.03-.57-.59-.5-.86-.5-1.37-.21-1.6-.21c-.24 0-.74-.06-.83.06s-1.54 1.96-1.81 2.31c-.27.36-.62.77-1.24 1.04s-3.18 1.13-4.18 1.34c-1.01.21-2.28.59-2.97.65-.68.06-1.31 0-1.93.12s-1.19.32-1.99.38-1.51.09-1.78.15-.8.48-1.13.54-.45 0-.92.18-.77.24-.77.33.41.18.41.18h5.41z"/><path d="m180.71 108.07s7.36-5.19 13.72-5.79c2.43-.23 8.98 1.08 12.43.96s8.45-1.94 9.22-1.97.04 1.01.7 1.62.45.57 1.35.66.69 1.37.83 1.87c.15.5.53.59 1.56.68 1.02.09 1.31-.26 1.59-.01.28.26 1.09 53.89 1.09 53.89s-.23.89-.73 1.16-33.46-.87-33.46-.87-1.25 2.97-6.1 3.18c-4.32.19-5.76-2.17-5.76-2.17l-31.92 1.06s-1.06-.11-1.8-.63c-.7-.49-1.99-49.74-1.75-50.25s.84-.03 1.72-.44.69-2.18.93-2.69 1.01-.09 1.64-.49c.62-.4.8-2.56 1.31-2.83.5-.27 5.69.71 7.85.5 2.17-.2 7.42-2.37 14.06-2.6 5.87-.2 11.12 5.05 11.43 5.42zm.59 2.11 1.57 45.83s.12 1.26.31 1.02c2.96-3.71 9.9-4.79 11.66-4.78 8.69.07 13.2 1.42 14.98 1.86 1.69.42 7.34 1.9 7.43 1.02s-1.32-52.53-2.51-52.24-5.5 1.57-8.87 1.44-6.17-1.16-11.69-.72c-8.83.7-12.88 6.57-12.88 6.57m-13.62-6.36c-5.14-.06-8.54 2.37-11.65 2.71-3.11.35-6.93-.34-8.05-.53-1.12-.2 1.87 47.79 2.01 48.61s3.25.59 4.03.57c1.7-.06 6.82-1.95 14.85-2.58 7.92-.62 10.83 1.87 11.46 2.74 1.25 1.69 1.74 2.33 1.74 2.33l-1.81-47.21c0-.01-4.36-6.55-12.58-6.64m-21.58 6.56s-.46-.44-.96-.3c-.5.15 2.05 44.86 2.08 45.49.02.63 1.34 1.95 5.13 1.82 3.78-.13 6.66-2.13 14.84-3.04s11.38 1.64 12.03 2.25c.49.45 1.52 1.6 1.52 1.6s.54.48.89.74c.75.56-.18-.54-.72-1.34-1.03-1.52-1.51-1.96-3.31-2.81-1.55-.73-4.9-1.34-9.69-1.17s-11.76 2.42-13.9 2.62-3.51-.04-4.02-.15-1.41-.42-1.68-.78c-.26-.37-2.17-44.52-2.17-44.52zm-1.78 2s-.62-.2-1.14-.06c-.52.15 1.56 44.75 1.58 45.38s2.49 2.36 8.28 1.78c3.92-.39 6.87-2.01 15.39-2.94s9.84 2.64 10.37 2.63c.54-.02-.45-.32.85-.42 1-.07-2.48-3.21-9.58-3.21-5 0-13.67 2.58-15.89 2.8-4.01.39-5.63.04-6.14-.13-1.42-.45-1.82-.72-2.09-1.08-.28-.37-1.61-44-1.61-44zm72.35-2.47s2.09 44.83 2.03 45.31c-.07.64-.69.89-1.19 1.04s-2.34-.42-4.49-.48c-.84-.03-8.59-2.45-15.06-2.72-4.79-.2-7.02.65-9.04 1.22-.51.14-3.38 1.59-4.56 2.86-.7.74-1.41 1.3-1.41 1.3.51.57.31.78 1.06-.2 1.21-1.6 2.06-1.8 3.27-2.48 1.3-.74 2.54-1.77 9.1-1.79 8.23-.02 13.27 2.15 17 2.8 4.57.8 6.27.65 6.24-.04-.02-.68-1.64-52.01-2.14-52.13-.51-.12-1.08.45-1.08.45zm-64.41 50.59c-.04.33 3.5.23 3.72.22s10.92-2.56 14.03-2.56c4.5.01 6.73 1.6 6.95 1.49.22-.12 1.24.36 1.22.03-.01-.33-4.11-2.3-6.9-2.25-6.81.12-9.35 1.49-12.43 2.2-3.08.7-6.54.54-6.59.87m27.69-.38c-.34-.13-.33.06-.71.21-.39.16-.15.44-.25.72-.1.29 2.1 1.32 3.49 1.37 1.39.04 2.65-.55 2.76-.74.1-.19 2.38-.96 2.22-2.12-.03-.25-1.73.98-2.01 1.13-.27.15-.86.3-1.13.45s-.58.17-1.47.2c-.67.02-2.56-1.09-2.9-1.22m39.16-49.05s1.48 44.69 1.47 45.18c-.03 1.64-.84 1.95-.84 1.95s-1.91.16-4.67-.2c-.83-.11-10.11-2.97-16.41-2.89-8.56.12-11.7 1.64-14.1 3.72-.93.8 1.07.72 1.07.72s.41-.47 1.02-.74c.85-.38 2.31-2.63 11.55-2.78 8.23-.14 13.13 2.63 16.9 2.97 5.14.46 6.67-.08 6.64-.78-.02-.71-1.27-51.08-1.78-51.21-.51-.12-1.08.46-1.08.46zm-27.88 47.9s1.46-.46 8.01-.72c3.26-.13 6.48.44 7.37.6 3.05.55 6.32.6 6.32.6s-5.2-.99-7.37-1.51-5.87-.72-8.5-.63-8.94 1.78-8.94 1.78z"/><path d="m162.58 109.82c-.14.09-1.09.16-1.44.25-1.07.26-2.96.59-5.11.77-2.14.17-5.14.03-5.62-.07s.2-.8.2-.8 1.93.13 3.13.44c1.21.31 1.65-.28 2.49-.42.57-.09 6.18-.87 6.29-.8.11.06.2.54.06.63"/><path d="m164.96 108.94c.13-.04.61-.04.87-.06 2.74-.13 7.33-.06 8.17.2.85.26 3.03.83 2.91 1-.11.17-.11.29-.7.36s-2.78-.6-4.46-.79c-1.68-.18-3.96-.4-5.51-.25-.37.04-1.03.1-1.24.13-.21.04-.17-.54-.04-.59"/><path d="m163.04 115.45c-.42.01-1.07.09-1.41.17-1.07.26-2.87.88-5.01 1.05s-5.14.03-5.62-.07c-.49-.1.66-.44.66-.44s.74-.38 1.82-.32c1.28.08 2.51.1 3.34-.04.57-.09 6.02-1.15 6.1-1.08.09.09.55.72.12.73"/><path d="m165.3 114.43c.22-.02.63-.06.9-.07 2.75-.13 7.55.3 8.4.56s3.02.82 2.91 1c-.12.17-.11.29-.7.36s-2.75-.87-4.43-1.05-3.99-.13-5.54.02c-.41.04-1.15.07-1.41.09-.26.03-.35-.89-.13-.91"/><path d="m163.41 121.37c-.1.08-.81.16-1.08.22-1.07.26-2.96.6-5.11.77s-5.87.05-6.35-.05.2-.8.2-.8 1.9.01 3.11.32 2.41-.18 3.24-.32c.56-.09 5.87-1.06 5.98-1.06.1 0 .11.85.01.92"/><path d="m165.74 120.28c.21-.01.74-.22 1.06-.23 2.74-.13 7.54.3 8.39.56s3 .56 2.89.73-.08.56-.68.63c-.59.07-2.21-.77-3.9-.95-1.68-.18-4.29-.45-5.83-.29-.54.05-1.7.2-1.93.25-.23.06-.21-.69 0-.7"/><path d="m162.78 112.61c-.1.07-1.16.08-1.53.17-1.06.26-2.88.91-5.03 1.08-2.14.17-5.14.03-5.62-.07s.67-.56.67-.56.6-.5 1.81-.2c1.21.31 2.51.1 3.35-.03.58-.1 6.15-1.08 6.3-.96.14.12.15.5.05.57"/><path d="m163.18 118.31c-.11.02-1.03.09-1.37.17-1.06.26-2.87.87-5.01 1.04s-5.14.03-5.62-.07.2-.8.2-.8.51.03 1.72.34 3.07-.19 3.9-.33c.57-.09 5.99-.91 6.12-.94.14-.01.17.57.06.59"/><path d="m165.5 117.43c.14-.09.61-.2.88-.21 2.75-.14 7.55.3 8.4.56s3.03.83 2.91 1c-.11.17-.11.29-.7.36s-2.88-.95-4.56-1.13-3.86-.05-5.41.1c-.41.04-1.06.08-1.4.09-.34.02-.25-.68-.12-.77"/><path d="m165.15 111.59c-.29.07-.21.93.04.93.26 0 .86-.04 1.24-.08 1.55-.16 3.75-.14 5.43.04s3.94 1.06 4.54.99c.59-.07.59-.19.7-.36s-2.07-.74-2.91-1c-.85-.26-5.65-.7-8.39-.56-.25.01-.36.02-.65.04"/><path d="m167.68 126.6c1.55-.16 3.83.06 5.51.24s3.86.86 4.46.79.59-.19.7-.36-2.3-.48-3.15-.74-5.41-.95-8.16-.82c-.29.01-.79.03-.96.08-.17.04-.04.91.06.92.12 0 1.08-.06 1.54-.11m-10.01.56c-.83.14-1.51.3-3.08.25-1.28-.05-3.27-.24-3.27-.24s-.69.7-.2.8c.48.1 4.21.22 6.35.05s4.29-.81 5.35-1.06c.27-.06.83-.1 1-.14s.32-.84-.05-.73c-.38.1-5.53.98-6.1 1.07m9.95-3.39c1.55-.16 3.83.06 5.51.25 1.68.18 3.78.93 4.46.79.58-.12.59-.19.7-.36s-2.11-.46-2.96-.72-5.61-.98-8.35-.84c-.32.02-.76.07-1.07.09-.32.02-.02.89.06.91.07.02 1.15-.07 1.65-.12m-10.02.57c-.83.14-1.96.29-3.24.24-.92-.04-2.76-.1-2.76-.1s-1.03.57-.55.67 4.21.22 6.35.05 4.22-.77 5.29-1.03c.25-.06.67-.13.93-.14.27-.01.11-.76-.05-.75-.16.02-5.41.96-5.97 1.06m.25 5.72c-.83.14-2.06.11-3.34.04-1.31-.07-3-.03-3-.03s-.69.7-.2.8c.48.1 4.21.22 6.35.05s4.54-.8 5.61-1.06c.21-.05.77-.14.77-.14s.6-.83-.05-.74c-.66.09-5.57.99-6.14 1.08m10.32-.79c1.55-.16 3.53.29 5.21.47s3.36.8 3.95.72c.59-.07 1.09-.12 1.2-.3.11-.17-2.06-.74-2.91-1s-5.65-.7-8.39-.56c-.28.01-.76 0-.95.08-.19.07-.19.78.05.77.25-.01 1.29-.12 1.84-.18m-10.76 3.94c-.83.14-1.28.73-2.49.42s-3.13-.44-3.13-.44-.69.7-.2.8c.48.1 3.48.24 5.62.07s4.04-.51 5.11-.77c.45-.11 1.79-.28 1.95-.31s.34-.72-.04-.64c-.39.09-6.22.77-6.82.87m10.02-.57c1.55-.16 3.83.06 5.51.25 1.68.18 3.86.86 4.46.79.59-.07.59-.19.7-.36s-2.07-.74-2.91-1c-.85-.26-5.43-.33-8.17-.2-.16.01-.39 0-.5.03s-.11.6.04.59.6-.07.87-.1m.59 5.84c1.55-.16 3.86-.2 5.54-.02s3.84 1.13 4.43 1.05c.59-.07.59-.19.7-.36s-2.07-.74-2.91-1c-.85-.26-5.65-.7-8.4-.56-.16.01-.25-.03-.5.03-.26.06-.13.94.06.93.19 0 .76-.03 1.08-.07m-10.02.57c-.83.14-2.07.11-3.35.04-1.08-.07-1.82.32-1.82.32s-1.14.33-.66.44c.48.1 3.48.24 5.62.07 2.15-.17 3.95-.8 5.01-1.05.43-.1 1.58-.17 1.86-.19.27-.02.27-.7-.05-.62-.32.07-6 .89-6.61.99m10.85 4.91c1.55-.16 4.16.11 5.84.29s3.3 1.03 3.89.95c.6-.07.56-.45.68-.63.11-.18-2.04-.47-2.89-.73s-5.65-.7-8.39-.56c-.22.01-.51-.05-.72.05s-.15.83.05.82 1.1-.14 1.54-.19m-10.25.78c-.83.14-2.03.63-3.24.32s-3.11-.32-3.11-.32-.69.7-.2.8c.48.1 4.21.22 6.35.05 2.15-.17 4.04-.51 5.11-.77.37-.09 1.37-.26 1.59-.32.21-.06.14-.78-.06-.75-.21.03-5.85.89-6.44.99m.25 5.65c-.83.14-1.51.3-3.08.24-1.28-.05-3.27-.24-3.27-.24s-.69.7-.21.8c.49.1 4.21.23 6.35.05 2.15-.17 4.29-.81 5.35-1.06.38-.09 1.23-.14 1.49-.18s.11-.78-.05-.77c-.16.02-5.98 1.06-6.58 1.16m17.54-.63c-.85-.26-5.41-.95-8.16-.82-.19.01-.46-.02-.6.04s-.1.94.06.93c.16 0 .81-.04 1.18-.08 1.55-.16 3.83.06 5.51.24s3.86.86 4.46.79.59-.19.7-.36-2.3-.48-3.15-.74m-8.77-14.09c1.55-.16 3.75-.14 5.43.04s3.94 1.06 4.54.99c.59-.07.59-.19.7-.36s-2.07-.74-2.91-1c-.85-.26-5.65-.7-8.39-.57-.09.01-.14.14-.29.17-.15.02-.1.77.06.79.15.02.6-.03.86-.06m-10.02.57c-.83.14-2.14.34-3.35.03s-1.81.2-1.81.2-1.15.46-.67.56 3.48.25 5.62.07c2.14-.17 3.97-.83 5.03-1.08.46-.11 1.87-.16 2.04-.19s.31-.85-.06-.77c-.35.07-6.18 1.07-6.8 1.18m.59 5.66c-.83.14-2.69.63-3.9.33-1.21-.31-1.72-.34-1.72-.34s-.69.7-.2.8c.48.1 3.48.25 5.62.07 2.15-.17 3.95-.79 5.01-1.05.43-.1 1.71-.18 1.88-.2.18-.02.42-.9-.06-.77s-6.03 1.06-6.63 1.16m10.01-.56c1.55-.16 3.72-.28 5.41-.1 1.68.18 3.97 1.21 4.56 1.13.59-.07.59-.19.7-.36s-2.07-.74-2.91-1c-.85-.26-5.65-.7-8.4-.56-.15.01-.36.02-.5.03-.14.02-.12.93.06.93.19.01.76-.04 1.08-.07m-9.42 6.23c-.83.14-1.96.29-3.25.24-.92-.04-2.76-.1-2.76-.1s-1.03.57-.55.67 4.21.23 6.35.05c2.14-.17 4.22-.77 5.29-1.03.36-.09 1.22-.36 1.45-.39.22-.02.09-.6-.08-.57-.18.03-5.86 1.03-6.45 1.13m10.02-.57c1.55-.16 3.83.06 5.51.24 1.69.18 3.78.93 4.46.79.58-.12.59-.19.7-.36.11-.18-2.11-.46-2.96-.72s-5.6-.98-8.35-.84c-.22.01-.59.13-.72.2-.13.06-.14.81.06.78.2-.02.9-.05 1.3-.09"/><path d="m196.56 108.64c-2.93.03-8.01.73-8.89 1.04-.88.3-3.15.99-3.01 1.15.14.17.14.28.78.32s3.09-1.12 4.87-1.39c1.77-.28 3.99-.26 5.65-.2.42.02 1.12.04 1.42.06s.19-.97-.04-.96-.55-.02-.78-.02m4.9 1.27c1.16.19 2.48.27 4.78.31 2.3.05 6.2-.11 6.7-.24s-.29-.78-.29-.78-.68.35-2.04.39c-1.42.04-3.05.03-3.94-.06-.63-.06-6.85-.74-7.02-.67s.1.85.19.87c.1.04 1.23.12 1.62.18m.08 5.59c1.16.19 2.59.21 4.89.26s6.09-.06 6.6-.18c.51-.13-.29-.78-.29-.78s-1.23.11-2.93.26c-1.35.12-2.16.16-3.05.07-.68-.07-6.55-.64-6.71-.57s-.45.78.03.79 1.1.08 1.46.15m-3.97-1.02c-2.94.03-8.94.47-9.81.78-.88.3-3.15.99-3.01 1.15.13.17.14.28.78.32s3.21-1.07 4.99-1.35c1.77-.27 3.87-.31 5.53-.24.47.02 1.39.05 1.61.06.21.01.13-.83-.03-.73-.19.11-.05.01-.06.01m4.38 6.6c1.16.19 2.93.69 5.23.74s5.47-.27 5.98-.39-.29-.78-.29-.78-1.42.13-2.67.51c-1.26.37-2.67-.32-3.57-.41-.61-.06-6.18-.57-6.34-.53-.16.03-.37.77.03.77.39 0 1.25.03 1.63.09m-5.18-1c-2.93.03-8.01.73-8.89 1.04s-3.15.99-3.01 1.15c.13.17.14.28.78.32s2.89-1.01 4.66-1.29 4.2-.37 5.86-.3c.49.02 1.57.01 1.75.01s.18-.95-.04-.91c-.23.03-.78-.02-1.11-.02m.44 5.79c-2.93.03-6.96.79-7.84 1.09-.88.31-3.94.45-3.81.61s.14.28.78.32 2.65-.27 4.42-.55c1.78-.27 4.19-.62 5.84-.55.46.02.79.02 1.58 0 .8-.02.21-.93-.04-.9-.24.03-.65-.02-.93-.02m4.94.94c1.15.19 3.17.75 5.47.8s5.47-.27 5.98-.39c.5-.13-.8-.5-.8-.5s-1.06.02-2.41.17c-1.27.14-2.17-.03-3.06-.11-.63-.06-6.25-.66-6.8-.74s-.15.71.03.7c.17-.01 1.2.01 1.59.07m-.72-14.33c1.16.19 3.42.7 5.72.75 2.29.05 5.47-.26 5.98-.39.5-.13-.77-.46-.77-.46s-1.14-.17-2.7-.03c-1.35.13-1.9.13-2.8.04-.64-.06-6.79-.77-6.94-.74s-.24.75.03.75c.27-.01 1.1.02 1.48.08m-4.69-.99c-2.93.03-7.5.85-8.38 1.15-.88.31-3.66.87-3.52 1.04s.14.28.78.32 2.9-.76 4.68-1.03c1.77-.28 4.18-.62 5.84-.56.42.02 1.12.03 1.37.01s.04-.89-.19-.85-.36-.08-.58-.08m4.99 7.01c1.16.19 3.21.42 5.51.47s5.47-.26 5.98-.39-.94-.5-.94-.5-.85.02-2.12.16c-1.34.14-2.31-.01-3.2-.1-.63-.06-6.57-.79-6.78-.73s-.57.83.04.87c.59.03 1.12.15 1.51.22m-4.9-1.28c-2.94.02-7.53.79-8.41 1.1s-3.62.92-3.49 1.09c.14.16.14.28.78.32s2.9-.76 4.67-1.03 4.45-.87 6.11-.8c.39.02 1.07.06 1.28.09.21.02.16-.76-.04-.75-.18.01-.63-.02-.9-.02m5.03 7.06c1.16.19 3.21.42 5.51.47s5.47-.26 5.98-.39c.5-.13-.7-.56-.7-.56s-1.28-.07-2.69.08c-1.35.13-1.98.13-2.88.04-.62-.06-6.65-.69-6.81-.65-.16.03-.08.83.19.87.25.03 1.05.08 1.4.14m-4.91-1.27c-2.93.03-8.01.73-8.89 1.04s-2.93.65-2.8.81c.13.17.14.28.78.32s3.1-.71 4.88-.98c1.77-.28 3.77-.33 5.43-.27.5.02 1.45.09 1.7.07.26-.02.01-.94-.19-.89-.19.04-.59-.11-.91-.1m5.52 6.66c1.15.19 3.02.67 5.33.72 2.3.05 5.48-.26 5.98-.39.51-.13-.66-.53-.66-.53s-1.15-.2-2.41.17-2.3 0-3.2-.09c-.63-.06-6.76-.79-6.87-.74s-.35.75.03.76 1.38.03 1.8.1m-5.08-1.01c-2.93.03-7.38.88-8.26 1.18-.88.31-3.77.84-3.64 1.01.14.17.14.28.78.32s2.9-.75 4.67-1.03c1.78-.27 4.19-.62 5.85-.55.44.02 1.17.01 1.53.01s.19-.97-.04-.92c-.23.04-.62-.03-.89-.02m.35 3.21c-2.94.03-8.01.73-8.89 1.04-.88.3-3.15.99-3.01 1.15.14.17.14.28.78.32s3.1-1.12 4.87-1.39c1.77-.28 3.99-.26 5.65-.2.4.02.98.06 1.34.05s.1-.95-.05-.96c-.15-.02-.48-.01-.69-.01m4.9 1.27c1.16.19 2.48.27 4.78.31 2.3.05 6.2-.11 6.7-.24s-.29-.78-.29-.78-.68.35-2.04.39c-1.42.04-3.04.03-3.94-.06-.65-.06-6.79-.79-7.08-.76s.08.67.18.69c.11.04 1.26.38 1.69.45m-13.71 5.35c-.88.3-3.15.99-3.01 1.15s.14.28.78.32 3.21-1.07 4.99-1.34c1.77-.27 3.87-.31 5.53-.24.45.02 1.43.09 1.52.06.1-.03.65-.75-.03-.72-.68.01-8.9.46-9.78.77m13.79.23c1.16.19 2.59.21 4.89.26s6.09-.06 6.59-.18c.51-.13-.29-.78-.29-.78s-1.23.11-2.93.26c-1.35.12-2.16.16-3.05.07-.7-.07-6.75-.58-7.07-.51s.07.7.18.71 1.28.11 1.68.17m-4.77 4.59c-2.93.03-8.01.73-8.89 1.04-.88.3-3.15.99-3.01 1.15.13.17.14.28.78.32s2.89-1.01 4.66-1.29c1.78-.27 4.2-.37 5.86-.3.47.02 1.45.04 1.67.01.08-.01.01-.93-.04-.92-.2.04-.72-.01-1.03-.01m5.18 1c1.16.19 2.92.69 5.22.74s5.47-.27 5.98-.39c.5-.13-.29-.78-.29-.78s-1.41.13-2.67.51c-1.26.37-2.67-.32-3.57-.41-.62-.06-6.23-.59-6.55-.55-.32.05-.13.79.03.79.17-.01 1.43.02 1.85.09m-5.42 4.79c-2.93.03-6.96.79-7.84 1.09-.88.31-3.94.45-3.81.61.13.17.14.28.78.32s2.65-.27 4.42-.55c1.78-.27 4.19-.62 5.85-.56.62.03 2.09 0 2.18-.01s-.01-.86-.19-.79c-.17.09-.95-.11-1.39-.11m4.94.94c1.15.19 3.17.75 5.47.8s5.47-.26 5.98-.39c.5-.13-.8-.5-.8-.5s-1.06.02-2.41.17c-1.27.14-2.16-.03-3.06-.12-.6-.06-5.91-.66-6.33-.69s-.11.65.03.66c.13 0 .83.02 1.12.07m-4.73-15.32c-2.93.02-7.5.85-8.38 1.15-.88.31-3.66.87-3.52 1.04s.14.28.78.32 2.9-.76 4.68-1.03c1.77-.27 4.18-.62 5.84-.56.39.02 1.1 0 1.29.01.18.02.2-1.02-.04-.92s-.45-.01-.65-.01m4.69.99c1.16.19 3.42.7 5.72.75s5.47-.26 5.98-.39-.77-.46-.77-.46-1.14-.17-2.7-.03c-1.35.13-1.9.12-2.8.04-.65-.06-6.61-.67-7.15-.76-.53-.09-.11.74.03.76.14.03 1.27.02 1.69.09m.3 6.02c1.16.19 3.21.42 5.51.47s5.47-.26 5.98-.39-.94-.5-.94-.5-.85.02-2.12.16c-1.34.14-2.31-.01-3.2-.1-.64-.06-5.91-.55-6.99-.75s-.1.86.04.86c.12-.02 1.28.17 1.72.25m-4.9-1.28c-2.94.02-7.53.79-8.41 1.1s-3.63.92-3.49 1.09c.13.17.14.28.78.32s2.9-.76 4.68-1.03c1.77-.27 4.45-.87 6.11-.8.37.01 1.04.08 1.2.08s.24-.77-.04-.74c-.28.02-.58-.02-.83-.02m.12 5.79c-2.93.03-8.01.73-8.89 1.03-.88.31-2.93.65-2.8.81.13.17.14.28.78.32s3.1-.71 4.87-.98 3.77-.33 5.43-.26c.48.02 1.14-.07 1.22-.07.09 0 .55-.88.35-.83-.18.04-.66-.03-.96-.02m15.69.78s-1.28-.07-2.7.08c-1.35.13-1.98.13-2.87.04-.63-.06-6.04-.71-6.87-.74s-.16.93.04.94c.2.02 1.23.1 1.62.17 1.16.19 3.21.42 5.51.47s5.48-.26 5.98-.39-.71-.57-.71-.57"/><path d="m104.55 183.7c.18-.04.32-.14.43-.32s.2-.34.26-.49l3.31-9.04c.09-.26.16-.47.21-.62.05-.16.08-.31.08-.46 0-.11-.02-.18-.06-.21s-.08-.06-.12-.1v-.5h3.36v.5c-.04.04-.09.07-.14.08-.05.02-.08.09-.08.22 0 .11.03.25.1.4.07.16.14.34.21.54l3.6 9.45c.07.17.16.29.24.36.09.07.19.13.29.17v.5h-3.16v-.42c.07 0 .15-.03.23-.08s.12-.16.12-.31c0-.11-.01-.21-.04-.31-.03-.09-.07-.21-.11-.36l-.6-1.59h-4.76l-.62 1.51c-.06.15-.11.28-.14.41-.04.12-.06.23-.06.32 0 .15.04.24.11.28s.18.05.31.05v.5h-2.98v-.48zm7.42-4.61-1.8-4.67-1.58 4.67z"/><path d="m117.94 179.95c0 .07 0 .15-.01.24-.01.08-.01.17-.01.26 0 .28.14.53.42.76s.62.43 1.01.58c.39.16.79.28 1.18.37s.7.14.92.14c.21 0 .46-.02.77-.06.3-.04.6-.11.9-.24.3-.12.55-.29.75-.5.21-.21.31-.5.31-.85 0-.41-.18-.7-.55-.89-.36-.19-.82-.33-1.36-.43-.55-.1-1.14-.2-1.78-.31-.64-.1-1.23-.27-1.78-.5s-1-.57-1.37-1c-.36-.43-.54-1.05-.54-1.85 0-1.19.39-2.13 1.18-2.84.78-.7 1.89-1.06 3.31-1.06.7 0 1.29.07 1.79.21s.91.29 1.25.46.62.32.83.46.37.21.48.21c.12 0 .21-.02.27-.07s.13-.1.22-.15l.25.31-1.11 2.61-.4-.17c-.01-.11-.03-.22-.04-.33s-.08-.22-.2-.33c-.3-.32-.75-.58-1.38-.81-.62-.22-1.32-.33-2.09-.33-.3 0-.58.02-.84.07-.27.05-.5.13-.71.24s-.37.26-.49.43c-.12.18-.18.39-.18.65 0 .41.18.7.54.88s.82.32 1.37.42 1.14.2 1.78.31 1.23.27 1.78.52c.55.24 1 .59 1.37 1.06s.54 1.1.54 1.92-.16 1.49-.48 2c-.32.52-.71.93-1.19 1.23-.47.3-.99.49-1.56.59-.57.09-1.11.14-1.61.14s-1-.06-1.5-.18-.95-.26-1.35-.42c-.41-.16-.75-.31-1.03-.45s-.45-.21-.51-.21c-.1 0-.19.06-.27.17l-.31-.28 1.02-3.12z"/><path d="m74.6 174.55c0-.35-.23-.53-.69-.53h-5.42v2.79h3.42c.25 0 .44-.02.56-.07s.18-.17.18-.38h.4v2.95h-.45c.05-.21-.01-.34-.18-.38-.16-.05-.39-.07-.69-.07h-3.25v3.3h5.69c.18 0 .33-.05.44-.15s.18-.24.18-.4h.4v2.9h-.4c0-.16-.06-.25-.18-.27s-.27-.03-.44-.03h-8.16v-.5c.07 0 .15-.03.22-.1s.11-.17.11-.32v-10.4c0-.15-.04-.25-.11-.32-.07-.06-.15-.1-.22-.1v-.5h7.89c.46 0 .69-.16.69-.49h.41v3.06h-.4z"/><path d="m86.4 172.79c.74.55 1.11 1.48 1.11 2.79 0 .5-.07.94-.22 1.33s-.35.73-.59 1.02-.51.52-.81.69c-.29.18-.6.31-.91.4l2.18 3.98c.12.2.25.36.39.46s.29.18.46.24v.5h-3.4v-.5c.19 0 .29-.08.29-.25 0-.19-.11-.47-.33-.86l-1.76-3.29h-3.09v3.98c0 .15.05.26.15.32.1.07.19.1.28.1v.5h-2.95v-.5c.27 0 .4-.14.4-.42v-10.4c0-.28-.13-.42-.4-.42v-.5h6.13c1.3.01 2.33.29 3.07.83m-3.13 4.47c1.45 0 2.18-.58 2.18-1.73 0-.46-.17-.83-.52-1.1s-.9-.41-1.66-.41h-3.51v3.24z"/><path d="m89.92 183.7c.24 0 .4-.03.49-.1s.13-.17.13-.32v-10.4c0-.15-.04-.25-.13-.32-.09-.06-.25-.1-.49-.1v-.5h3.38v.5c-.42 0-.62.14-.62.42v10.4c0 .28.21.42.62.42v.5h-3.38z"/><path d="m98.6 183.61c.08-.07.11-.17.11-.32v-9.27h-2.89c-.12 0-.23.04-.33.11s-.16.2-.16.36h-.4v-3.18h.4c0 .26.05.43.16.52.1.09.21.14.33.14h7.91c.12 0 .23-.04.33-.14.1-.09.16-.27.16-.52h.4v3.18h-.4c0-.17-.05-.29-.16-.36-.1-.07-.21-.11-.33-.11h-2.89v9.27c0 .28.13.42.4.42v.5h-2.86v-.5c.07-.01.14-.04.22-.1"/><path d="m55.46 144.35c-.3 0-.51.13-.64.4s-.23.49-.29.65l-3.93 10.81c-.13.37-.24.67-.33.89s-.13.38-.13.47.02.17.06.22.08.11.14.17v.5h-3.4v-.5c.13-.07.2-.2.2-.39 0-.09-.06-.28-.17-.57s-.25-.65-.41-1.07l-4-10.87c-.07-.2-.18-.35-.31-.44s-.33-.19-.58-.28v-.5h3.98v.5c-.1 0-.2.03-.3.1-.1.06-.15.19-.15.37 0 .2.06.46.19.78.12.32.28.71.45 1.17l2.85 7.64 2.78-7.53c.18-.48.35-.91.5-1.29s.23-.64.23-.79c0-.3-.21-.44-.62-.44v-.5h3.89v.5z"/><path d="m63.53 146.45c.72.26 1.34.65 1.88 1.17.53.52.95 1.17 1.26 1.96s.47 1.71.47 2.77-.16 1.98-.47 2.77-.73 1.44-1.26 1.96-1.16.9-1.88 1.13-1.48.35-2.3.35c-.81 0-1.58-.12-2.3-.35s-1.34-.61-1.88-1.13c-.53-.52-.95-1.17-1.26-1.96s-.47-1.71-.47-2.77.15-1.98.47-2.77c.31-.79.73-1.44 1.26-1.96s1.16-.91 1.88-1.17 1.48-.39 2.3-.39 1.58.13 2.3.39m-3.68 1.95c-.45.2-.85.47-1.21.83-.35.36-.64.8-.85 1.32s-.32 1.11-.32 1.78.11 1.26.32 1.78c.22.52.5.96.85 1.32.36.36.76.64 1.21.84.45.19.91.29 1.39.29.47 0 .94-.1 1.39-.29.45-.2.85-.47 1.21-.84.35-.36.64-.8.85-1.32s.32-1.11.32-1.78-.11-1.26-.32-1.78-.5-.96-.85-1.32c-.36-.36-.76-.64-1.21-.83s-.91-.29-1.39-.29-.94.1-1.39.29"/><path d="m71.37 146.73c-.18 0-.27.1-.27.31 0 .09.04.21.13.36s.2.32.33.53l1.56 2.36 1.69-2.58c.24-.35.36-.6.36-.75s-.1-.22-.29-.22v-.5h3.4v.5c-.24 0-.43.09-.58.28l-3.36 5.06 3.09 4.87c.12.17.26.38.42.64s.35.39.58.39v.5h-3.4v-.5c.1-.02.16-.09.16-.22 0-.05-.08-.24-.25-.55l-1.93-2.98-1.89 2.89c-.21.31-.31.54-.31.67s.07.19.2.19v.5h-3.24v-.5c.09 0 .2-.03.32-.08.13-.06.24-.17.34-.33l3.38-5.2-3.07-4.78c-.21-.31-.38-.53-.51-.65s-.25-.18-.36-.18v-.5h3.49v.47z"/><path d="m65.24 170.08c-.3 0-.51.13-.64.4s-.23.49-.29.65l-3.93 10.81c-.13.37-.25.67-.33.89-.09.22-.13.38-.13.47s.02.17.05.22c.04.06.09.11.14.17v.5h-3.4v-.5c.13-.07.2-.2.2-.39 0-.09-.06-.28-.17-.57s-.25-.64-.41-1.07l-4-10.87c-.07-.2-.18-.35-.31-.44s-.33-.19-.58-.28v-.5h3.98v.5c-.1 0-.2.03-.3.1-.1.06-.14.19-.14.37 0 .2.06.46.19.78.12.31.28.7.45 1.17l2.85 7.64 2.78-7.53c.18-.48.34-.91.5-1.29s.23-.64.23-.79c0-.3-.21-.44-.62-.44v-.5h3.89v.5z"/><path d="m95.2 195.82c-.3 0-.51.13-.65.4-.13.27-.23.49-.29.65l-3.94 10.81c-.13.37-.24.67-.33.89s-.13.38-.13.47.02.17.06.22c.04.06.08.11.14.17v.5h-3.4v-.5c.13-.07.2-.2.2-.39 0-.09-.06-.28-.17-.57s-.25-.64-.41-1.07l-4-10.87c-.07-.2-.18-.35-.31-.44s-.33-.18-.58-.28v-.5h3.98v.5c-.1 0-.2.03-.3.1-.1.06-.15.19-.15.37 0 .2.06.46.19.78.13.31.28.7.45 1.17l2.85 7.64 2.78-7.53c.18-.48.34-.91.5-1.29.15-.38.23-.64.23-.79 0-.29-.21-.44-.62-.44v-.5h3.89v.5z"/><path d="m96.6 209.44c.24 0 .4-.03.49-.1s.13-.17.13-.32v-10.4c0-.15-.05-.25-.13-.32-.09-.06-.25-.1-.49-.1v-.5h3.38v.5c-.42 0-.62.14-.62.42v10.4c0 .28.21.42.62.42v.5h-3.38z"/><path d="m105.28 209.35c.07-.06.11-.17.11-.32v-9.27h-2.89c-.12 0-.23.04-.33.11s-.16.2-.16.36h-.4v-3.18h.4c0 .26.05.43.16.52.1.09.21.14.33.14h7.91c.12 0 .23-.05.33-.14s.16-.27.16-.52h.4v3.18h-.4c0-.17-.05-.29-.16-.36-.1-.07-.22-.11-.33-.11h-2.89v9.27c0 .28.13.42.4.42v.5h-2.86v-.5c.07-.01.14-.04.22-.1"/><path d="m110.67 209.44c.18-.04.32-.14.43-.32s.2-.34.26-.49l3.31-9.04c.09-.26.16-.47.21-.63s.08-.31.08-.46c0-.11-.02-.18-.06-.21s-.08-.06-.12-.1v-.5h3.36v.5c-.05.04-.09.06-.15.08s-.08.09-.08.22c0 .11.03.25.1.4.07.16.14.34.21.54l3.6 9.45c.07.17.15.29.24.36s.18.13.29.17v.5h-3.16v-.42c.07 0 .15-.03.23-.08.08-.06.12-.16.12-.31 0-.11-.02-.21-.05-.31-.03-.09-.07-.21-.11-.36l-.6-1.59h-4.76l-.62 1.51c-.06.15-.11.28-.14.4-.04.12-.06.23-.06.32 0 .15.04.24.11.28s.18.06.31.06v.5h-2.98v-.47zm7.43-4.61-1.8-4.67-1.58 4.67z"/><path d="m152.58 216.7c-.04 0-.05-.01-.06-.01-.23-.11-.34-.37-.45-.66-.05-.12-.12-.31-.17-.36-.48-.35-.64-1.11-.68-1.4-.02-.03-.05-.05-.07-.07-.16-.16-.36-.37-.88-1.35-.33-.63-.54-1.7-.77-2.83-.24-1.23-.52-2.63-.97-3.47-.56-1.05-3.11-2.87-3.66-3.02-.69-.19-1.4-.81-1.89-1.67-.19-.34-1.32-1-2.23-1.53-1-.58-1.85-1.08-2.19-1.48-.53-.63-.87-.6-1.57-.39-.28.09-.37.2-.48.32-.14.17-.33.4-.82.35-.41-.05-.57-.17-.7-.34-.48-.1-.71-.2-.73-.21-.04-.02-.08-.04-.11-.08-.03-.03-.78-.83-.28-2.24.09-.25.04-.51-.15-.8-.43-.66-1.42-1.19-1.8-1.22-.23-.02-.72.02-1.3.08-1.05.09-2.36.21-3.41.07l-.22-.03c-1.27-.16-3.63-.45-5.17-3.12-1.16-1.2-3.75-2.31-4.18-2.23-.48.11-3.56.35-4.46-.22-.58-.37-3.65-.45-4.5-.11l-.26.1c-.75.3-1.39.56-1.82.33-.17-.09-.28-.24-.33-.44-.12-.53-.56-1.23-1.03-1.43-.2-.08-.38-.07-.58-.06-.29.02-.72.05-.95-.44-.19-.41.01-.78.18-1.07.13-.23.25-.44.23-.67-.01-.23-.06-.46-.11-.66-.09-.42-.19-.85.17-1.12.09-.08.11-.55-.06-.86-.04-.06-.08-.12-.15-.18-.27-.29-.49-.6-.37-1.5 0-.02.01-.05.01-.07.27-.8.07-2.5-.16-3.17-.06.03-.12.06-.2.07-.3.05-.64-.08-1.13-.43-.96-.69-.89-1.37-.84-1.87.01-.1.02-.2.02-.3 0-.34-.32-1.02-.72-1.82-2.22-.48-2.75-1.34-3.18-2.04-.17-.27-.31-.51-.54-.69-.96-.77-2.91-2.6-3.42-4.08-.21-.62-.97-1.33-1.63-1.96-.75-.71-1.4-1.33-1.49-1.93-.07-.44-1-1.04-1.75-1.51-.61-.39-1.19-.75-1.52-1.13-.3-.35-1.24-2.86-.11-4.23 1.31-1.6 1.35-4.66.51-6.14-.29-.52-.52-.48-1.2-.26-.64.2-1.51.47-2.52-.21-1.66-1.14-3.33-2.5-3.04-3.99.22-1.14.34-2.45-.44-3.5-.91-1.21-1.08-2.26-1.13-3.13-.04-.7.29-1.05.59-1.29-.1.01-.2-.04-.27-.12-.39-.46-1.23-1.23-1.57-1.45-.14-.09-.26-.11-.44-.14s-.41-.07-.72-.19c-.5-.2-.96-.69-1.36-1.12-.12-.13-.24-.26-.35-.37-.32-.31-.46-.91-.62-1.6-.11-.45-.21-.91-.37-1.28-.21-.13-.44-.51-.96-1.48-.06-.12-.11-.21-.15-.27-.25-.43-1.66-2.41-2.32-3.31-.55-.74-2.35-2.28-3.32-3.11-.33-.28-.57-.49-.67-.58-.02-.02-2.29-2.39-2.13-3.18.1-.5.22-2.2-.33-3.02-.62-.93-1.32-3.52-.62-4.5.51-.71.62-2.13.32-3.91-.14-.79-1.22-2.4-2.18-3.82-.49-.72-.94-1.41-1.27-1.97-.53-.9-1.32-1.37-2.02-1.78-.56-.33-1.05-.62-1.25-1.07-.4-.9-.61-3.41-.39-4.63.12-.66 1.99-4.33 2.01-4.36.11-.2.24-.4.36-.61.55-.92 1.08-1.78.87-2.66-.73-1.38-.08-2.74.49-3.93.35-.73.68-1.42.68-2.05.11-1.36-.64-2.94-1.18-4.1-.33-.69-.58-1.23-.61-1.61-.05-.55-.12-4.05.1-4.38.25-.38.39-.59 8.28-.23.99.04 15.59.35 18.58.3.75-.02 2.84.02 5.47.07 2.4.04 5.26.09 7.95.12l-.01.68c-2.7-.03-5.55-.08-7.96-.12-2.63-.05-4.7-.08-5.44-.07-3 .06-17.63-.25-18.62-.3-1.75-.08-6.98-.31-7.66-.08-.06.5-.09 2.93-.01 3.95.02.25.28.8.55 1.37.58 1.23 1.37 2.9 1.25 4.42 0 .75-.38 1.55-.74 2.32-.55 1.16-1.07 2.26-.48 3.35.01.02.02.05.03.08.31 1.17-.32 2.22-.94 3.23-.12.2-.24.39-.35.59-.14.26-1.85 3.67-1.93 4.15-.2 1.08-.01 3.45.34 4.23.11.25.51.49.97.76.73.43 1.64.98 2.26 2.03.32.54.77 1.22 1.25 1.93 1.04 1.55 2.12 3.16 2.28 4.09.2 1.15.41 3.26-.44 4.42-.42.59.03 2.82.63 3.72.72 1.09.52 3.1.43 3.54.03.36 1.45 2.09 1.93 2.55.09.08.32.28.64.55 1.06.9 2.83 2.41 3.43 3.22.56.76 2.08 2.89 2.36 3.38.04.07.09.17.15.29.15.28.52.97.69 1.18.09.03.17.09.22.18.23.46.36 1.02.49 1.57.12.51.26 1.09.43 1.26.12.12.24.25.38.39.36.38.76.81 1.12.96.24.1.41.12.58.15.22.04.44.07.7.24.38.25 1.14.95 1.58 1.42.13-.04.19-.08.2-.11.06-.13-.18-.56-.33-.82-.22-.39-.45-.8-.46-1.2 0-.02-.01-.04-.01-.07s.25-2.74 1.46-2.8c.34-.02.53-.01.66 0 .14.01.14.01.35-.14.1-.07.2-.19.28-.3.15-.19.35-.42.65-.4s.49.29.64.56c.25.45.64.7.9.75.06.01.17.02.23-.03.08-.07.19-.22.3-.36.25-.34.49-.66.85-.6.21.03.36.19.45.46.2.57.68.68 1.05.6.01 0 1.24-.27 1.6.25.06.09.17.32-.02.61-.36.54-1.08.62-1.63.52-.08-.01-.38.05-.62.09-.79.15-1.99.38-2.86-.04-.68-.32-1.45-.39-1.87-.16-.18.1-.29.24-.32.45-.19 1.29-.05 2.15.39 2.43.15.1.31.19.46.29.64.38 1.3.78 1.58 1.28.48.87.57 1.7.27 2.34-.12.25-.29.41-.5.47-.42.12-.86-.15-1.42-.5-.12-.07-.24-.15-.38-.23-1.11-.65-.96-1.94-.95-1.99.01-.09.06-.18.13-.23h.01c-.08-.08-.19-.16-.28-.18-.06-.02-.09 0-.11.02-.08.07-.16.13-.24.19-.31.22-.51.37-.49.83.04.76.19 1.69.99 2.75.94 1.26.81 2.75.56 4.04-.21 1.11 1.36 2.34 2.75 3.3.74.5 1.32.32 1.93.13.63-.2 1.42-.45 2 .58.97 1.7.92 5.08-.58 6.91-.81.98-.11 3.08.1 3.35.26.3.82.66 1.37 1 1 .63 1.94 1.23 2.06 1.98.06.37.71.99 1.28 1.54.76.72 1.54 1.46 1.8 2.23.42 1.23 2.15 2.93 3.2 3.77.32.26.51.57.7.86.41.66.83 1.35 2.9 1.76.1.02.19.09.24.18.6 1.19.86 1.8.86 2.28 0 .12-.01.24-.02.36-.04.46-.07.79.57 1.25.45.33.6.31.6.31.06-.1.17-.27.38-.27.23 0 .35.19.41.27.39.57.7 2.84.35 3.95-.08.63.04.75.2.92.07.08.17.18.24.31.27.47.35 1.39-.12 1.74 0 .03.05.26.09.43.05.23.11.49.13.78.02.43-.17.77-.32 1.04-.14.24-.2.37-.16.45.05.06.19.05.28.04.23-.01.55-.04.89.11.79.34 1.29 1.35 1.42 1.9.15.06.83-.21 1.23-.37l.26-.11c.89-.35 4.24-.38 5.11.17.59.37 3.34.26 3.95.13.77-.17 3.66 1.19 4.85 2.45.02.02.03.04.05.07 1.37 2.41 3.44 2.67 4.68 2.82l.23.03c.97.13 2.24.02 3.25-.08.63-.06 1.13-.1 1.42-.08.57.05 1.76.68 2.31 1.54.3.47.37.95.22 1.4-.29.83-.02 1.33.09 1.49.08.03.24.08.46.12.29.06.4.18.48.3.01.02.05.04.22.06.12.01.12.01.22-.1.13-.16.32-.4.81-.55.92-.28 1.56-.27 2.29.6.26.31 1.19.85 2.01 1.33 1.37.8 2.22 1.31 2.49 1.78.39.69.96 1.21 1.48 1.35.67.18 3.4 2.1 4.08 3.36.5.93.77 2.32 1.04 3.66.21 1.08.42 2.11.7 2.65.47.9.63 1.06.76 1.19.06.06.12.12.18.21.04.05.06.11.07.17.03.3.18.85.43 1.03.19.14.29.4.39.65.03.06.06.16.1.23 2-.33 20.66-3.82 30.79-5.72.24-.53.44-.85 1.27-.89.03 0 .07 0 .11.01.89.25 1.1.32 1.64-.83.36-.76.51-1.87.12-2.53-.19-.33-.49-.5-.92-.52-.72.11-1.21.04-1.52-.22-.2-.17-.31-.41-.33-.72-.01-.08-.01-.2-.01-.33-.02-.61-.05-1.74-.31-2.33l-.12-.27c-.33-.72-.79-1.71.1-2.43.97-.79 2.4-2.56 2.14-3.99-.1-.56-.32-1.09-.53-1.61-.39-.94-.76-1.83-.36-2.73.11-.25.2-.52.3-.81.38-1.09.86-2.46 2.41-3.39.82-.49 1.29-1.21 1.26-1.92-.02-.45-.25-.83-.62-1.01-.18-.09-.36-.16-.53-.23-.9-.38-1.75-.73-2.39-2.51-.6-1.67-1.46-2.67-2.03-3.32l-.21-.25c-.24-.28-.52-.67-.82-1.08-.5-.69-1.07-1.46-1.51-1.86-.31-.28-7.24-5.89-16.15-13.07-.84.02-1.91.06-3.13.1-8.46.27-16.16.47-17.39.01-1.01-.38-1.14-3.85-1.07-11.99.02-2.36.04-5.03-.1-5.51-.11-.08-.35-.28-.7-.56-1.46-1.18-4.92-4-9.04-7.36-9.03-7.36-22.66-18.47-23.19-18.81-.09-.06-.16-.17-.17-.28l-1.29-39.06.68-.02 1.34 38.89c1.26.96 8.98 7.23 23.11 18.75 4.13 3.36 7.58 6.18 9.04 7.36.43.35.68.55.73.59.32.24.36.97.32 6.02-.03 3.79-.09 10.84.64 11.36 1.2.45 11.55.12 17.12-.06 1.28-.04 2.41-.08 3.26-.1.07 0 .16.02.22.07 7.81 6.3 15.91 12.84 16.28 13.17.49.44 1.08 1.25 1.6 1.96.29.4.56.77.79 1.05l.2.24c.6.7 1.51 1.75 2.15 3.54.54 1.5 1.15 1.76 2.01 2.11.18.08.36.15.56.24.6.29.97.88 1.01 1.59.04.97-.55 1.92-1.59 2.54-1.35.8-1.74 1.93-2.12 3.03-.11.3-.21.59-.32.85-.28.64.02 1.36.37 2.2.23.55.46 1.12.58 1.75.31 1.73-1.25 3.73-2.38 4.64-.43.35-.29.78.09 1.61l.13.28c.31.71.35 1.88.37 2.58 0 .13.01.24.01.32.01.17.06.22.08.23.08.07.33.16 1.06.06.72.04 1.22.33 1.53.86.54.91.33 2.28-.09 3.17-.7 1.49-1.27 1.52-2.39 1.21-.42.03-.45.09-.64.5l-.07.16c-.05.1-.14.17-.24.19-28.21 5.28-30.95 5.76-31.32 5.76m-71.07-78.73c.02.3.14.79.63 1.07.14.08.27.16.39.24.31.2.75.46.87.42.01 0 .04-.03.08-.11.28-.59-.04-1.34-.25-1.73-.19-.34-.79-.7-1.33-1.03-.16-.1-.33-.2-.48-.29-.7-.44-.94-1.49-.7-3.1.06-.42.29-.75.67-.95.62-.33 1.6-.27 2.48.15.68.32 1.74.12 2.44-.02.21-.04.37-.07.5-.09-.6-.02-1.1-.37-1.35-.96-.06.07-.12.15-.16.21-.13.17-.26.35-.41.47-.21.17-.48.23-.79.18-.52-.1-1.05-.51-1.37-1.08-.04-.07-.07-.12-.09-.15-.02.03-.05.06-.07.09-.11.14-.25.31-.44.43-.35.24-.46.27-.78.25-.12-.01-.28-.02-.58 0-.36.02-.73 1.37-.8 2.03v.08c-.03.22.18.6.37.94.28.49.56 1 .35 1.45-.01.02-.02.04-.03.06.07 0 .14.01.21.03.4.1.75.46.87.76.11.27.01.44-.05.52-.06.06-.12.1-.18.13m5.59-5.44c.03 0 .05.01.08.01.2.04.55.05.78-.08-.18-.02-.44-.01-.71.05-.05 0-.1.01-.15.02"/><path d="m108.31 73.79-.09-2.56c-1.03.08-2.81.11-5.4.12v-.68c2.87 0 4.79-.05 5.69-.15.09-.01.19.02.26.08s.11.15.12.25l.1 2.92z"/><path d="m99.54 73.48h-4s-9.45.18-13.27.18c-3.83 0-18.24-.44-18.48-.18-.23.27-.29.53-.06.62s10.59.18 11.58.18c.98 0 12.46.09 14.31 0s9.97 0 9.97 0z"/><path d="m94.27 79.91c-.16-.22-.3-.23-.3-.23-4.57-.04-13.05-.11-14.43-.04-1.8.08-14.4-.16-14.69 0s-.46.57-.23.65 5.19.08 6.17.08h12.23c.46 0 8.23.16 8.63.16.13 0 1.34.02 2.91.03.01 0-.13-.43-.29-.65"/><path d="m109.55 85.96h-7.17c-.98 0-12.17-.06-12.81 0s-10.95 0-13.16 0c-2.2 0-11.46-.06-11.75 0s-.64.29-.52.46.17.17.52.23 7.35.23 8.22.23 9.1-.12 10.09-.12c.98 0 11.07-.17 13.27-.12 2.2.06 13.32 0 13.32 0v-.68z"/><path d="m109.67 92.11s-10.53-.06-12.85-.06-13.79.06-15.24.06-10.66-.12-12.34-.12-7.41-.23-7.64.06-.41.41-.23.58c.17.17.23.23.87.23s8.22-.11 10.3-.11c2.09 0 13.62 0 15.01.11 1.39.12 8.29.17 10.08.17 1.8 0 12.04-.17 12.04-.17z"/><path d="m110.13 104.6-12.52-.01s-9.45.18-13.27.18-18.24-.44-18.47-.18c-.23.27-.29.53-.06.62s10.59.18 11.58.18c.98 0 12.46.09 14.31 0 1.86-.09 18.49.01 18.49.01z"/><path d="m110.53 110.87s-10.32.08-12 .08-15.36-.16-17.15-.08c-1.8.08-13.72-.16-14.01 0s-.46.57-.23.65 4.51.08 5.49.08h12.23c.46 0 8.23.16 8.63.16.41 0 10.72.08 11.77 0 1.04-.08 5.27 0 5.27 0z"/><path d="m111.17 116.94h-4.45c-.98 0-12.17-.06-12.81 0s-10.95 0-13.16 0c-2.2 0-11.46-.06-11.75 0s-.64.29-.52.46.17.17.52.23 7.35.23 8.22.23 9.1-.11 10.08-.11c.99 0 11.07-.17 13.27-.12 2.2.06 10.59 0 10.59 0v-.69z"/><path d="m119.5 123.22s-8.49-.06-10.81-.06-13.79.06-15.24.06-10.66-.12-12.34-.12-7.41-.23-7.64.06-.41.41-.23.58c.17.17.23.23.87.23s8.22-.12 10.3-.12c2.09 0 13.62 0 15.01.12s8.29.17 10.08.17 10-.17 10-.17z"/><path d="m109.9 98.3s-8.6.06-9.58.06c-.99 0-12.17-.06-12.81 0s-10.95 0-13.16 0c-2.2 0-11.46-.06-11.75 0s-.64.29-.52.46.17.17.52.23 7.35.23 8.22.23 9.1-.12 10.08-.12 11.07-.17 13.27-.12c2.2.06 15.72-.05 15.72-.05v-.69z"/><path d="m134.01 135.59-17.47.33s-9.45.18-13.27.18c-3.83 0-18.24-.44-18.48-.18-.23.26-.29.53-.06.62s10.59.18 11.58.18 12.46.09 14.32 0c1.85-.09 23.44-.33 23.44-.33z"/><path d="m141.6 141.89s-23.09.26-24.77.26-15.36-.16-17.16-.08-14.4-.16-14.69 0-.46.57-.23.65 5.19.08 6.17.08h12.23c.46 0 8.23.16 8.63.16.41 0 10.72.08 11.77 0 1.04-.08 18.04-.18 18.04-.18v-.89z"/><path d="m142.99 148.05s-12.24.07-13.22.07c-.99 0-12.17-.06-12.81 0s-10.96 0-13.16 0-12.14-.06-12.43 0-.64.29-.52.46.17.17.52.23 8.03.23 8.9.23 9.1-.12 10.08-.12 11.07-.17 13.27-.12c2.2.06 19.36-.07 19.36-.07v-.68z"/><path d="m143.45 154.25s-13.65.1-15.97.1-13.79.06-15.24.06-10.67-.12-12.35-.12-8.09-.23-8.32.06-.41.4-.23.58.23.23.87.23 8.9-.12 10.99-.12 13.62 0 15.01.12 8.29.17 10.09.17 15.16-.33 15.16-.33v-.75z"/><path d="m126.27 129.48s-8.6.06-9.58.06c-.99 0-12.17-.06-12.81 0s-10.95 0-13.16 0c-2.2 0-11.46-.06-11.75 0s-.64.29-.52.46.17.17.52.23 7.35.23 8.22.23 9.1-.12 10.08-.12 11.07-.17 13.27-.12c2.2.06 15.72-.05 15.72-.05v-.69z"/><path d="m144.84 160.53s-1.94.26-3.62.26-30.36-.16-32.16-.08-13.72-.16-14.01 0-.46.57-.23.65 4.51.08 5.49.08h12.23c.46 0 8.23.16 8.64.16s21.63.08 22.68 0c1.04-.08.99-.18.99-.18v-.89z"/><path d="m172.73 166.7s-18.37.07-19.36.07-11.89-.11-12.52-.05c-.64.06-26.25.05-28.45.05s-12.14-.06-12.43 0-.64.29-.52.46.17.17.52.23 8.03.23 8.9.23 9.1-.12 10.09-.12c.98 0 26.2-.04 28.4.02s25.37-.2 25.37-.2z"/><path d="m126.55 173.96c6.54.01 14.51.04 15.36.11 1.39.12 9.9-.06 11.69-.06 1.8 0 27.19-.09 27.19-.09v-.75s-26.18-.2-28.49-.2c-2.32 0-14.91.35-16.36.35-.66 0-4.72-.02-9.12-.05z"/><path d="m185.41 191.46h-7.17c-.99 0-12.17-.06-12.81 0s-10.95 0-13.16 0c-2.2 0-20.72.12-21.01.18s-.64.29-.52.46.17.17.52.23 16.6.05 17.47.05 9.1-.12 10.09-.12 11.07-.17 13.27-.12c2.2.06 13.32 0 13.32 0z"/><path d="m185.16 198.04s-3.71-.06-6.03-.06-13.79.06-15.24.06-10.66-.12-12.34-.12-6.72-.23-6.96.06c-.23.29-.4.41-.23.58.18.17.23.23.87.23s7.53-.12 9.62-.12 13.62 0 15.01.12 8.29.17 10.08.17c1.8 0 5.22-.17 5.22-.17z"/><path d="m182.3 210.52-1.79.09s-3.79-.16-7.61-.16c-3.83 0-17.56-.44-17.79-.18s-.29.53-.06.62 9.91.18 10.9.18 6.81.15 8.66.06 7.77 0 7.77 0z"/><path d="m184.5 203.71s-8.6.06-9.58.06-5.35-.06-5.99 0-2.77 0-4.97 0-11.46-.06-11.75 0-.64.29-.52.46.17.17.52.23 7.35.23 8.22.23 2.28-.12 3.26-.12 9.71-.17 11.91-.12c2.2.06 8.9-.05 8.9-.05z"/><path d="m126.7 179.8c12.7.01 35.98.03 37.01.11 1.39.12 8.29.17 10.08.17 1.8 0 12.04-.17 12.04-.17v-.75s-10.53-.06-12.85-.06-13.79.06-15.24.06c-.97 0-18.92-.05-31.16-.09z"/><path d="m189.86 185.26s-8.6.06-9.58.06-12.17-.06-12.81 0-10.95 0-13.16 0c-2.2 0-44.2-.06-44.49 0s-.64.29-.52.46.17.17.52.23 7.35.23 8.22.23 41.84-.12 42.82-.12c.99 0 11.07-.17 13.27-.12 2.2.06 15.73-.06 15.73-.06z"/><path d="m108.3 173.16s-2.05-.28-2.17.31c-.12.61.47.4 1.86.54z"/><path d="m112.64 173.97 4.03-.04.35-.73-4.65-.07z"/><path d="m114.6 179.04 4.19-.04s.62.27 1.23.38c.61.12 2.15.35 2.15.35l-3.77.11s.31-.23-.04-.27-.96-.23-1.11-.19-.19.38-.19.38l-2.15.04z"/><path d="m105.84 187.35s-1.05.87-.56 1.24 1.19.23 1.61.52c.42.28.63 1.76 1.34 1.69.7-.07 2.88-.98 4.15-.63 1.26.35 3.09.56 4.15.63 1.05.07 2.18-.07 3.02.14s2.95 1.34 3.45 1.9c.49.56 1.69 2.32 3.45 2.74s2.67.63 3.59.63 2.81-.24 3.16-.23 1 .39 1 .39.26-.31-.16-.8-.84-1.66-2.07-1.68c-1.23-.01-3.83.2-5.31-.01s-2.95-.98-3.8-1.83-1.41-1.83-3.23-2.67-2.67-.56-3.87-.56-2.39-.63-3.52-.7c-1.12-.07-3.94.35-4.43.42s-.98.14-.98.14z"/><path d="m134.27 196.82-.25-.14c-.23-.13-.66-.34-.85-.35-.13-.01-.6.04-1.05.08-.69.06-1.56.14-2.1.14-.95 0-1.86-.21-3.67-.64-1.63-.39-2.77-1.8-3.39-2.56-.09-.11-.17-.21-.24-.29-.42-.48-2.44-1.58-3.27-1.79-.48-.12-1.09-.12-1.74-.11-.4 0-.82.01-1.23-.02-.93-.06-2.86-.27-4.22-.64-.79-.22-2.13.15-3 .4-.44.12-.78.22-1.02.24-.68.07-1-.65-1.24-1.18-.09-.2-.23-.51-.32-.56-.13-.09-.35-.12-.58-.16-.34-.05-.72-.11-1.05-.37-.17-.13-.26-.31-.26-.51-.01-.54.62-1.1.81-1.26l.28-.23 1.08 1.46.88-.13c2.19-.32 3.67-.45 4.4-.41.56.04 1.12.2 1.67.35.61.17 1.23.35 1.83.35.24 0 .46-.01.68-.02.88-.04 1.8-.09 3.33.62 1.48.68 2.18 1.47 2.8 2.16.18.2.35.39.53.58.85.85 2.3 1.54 3.6 1.73.98.14 2.52.09 3.76.04.59-.02 1.12-.04 1.51-.03 1.14.01 1.7.86 2.07 1.42.09.14.18.27.26.37.48.56.33 1.05.16 1.25zm-10.57-3.67c.59.72 1.57 1.8 2.83 2.1 1.75.42 2.64.62 3.51.62.51 0 1.35-.08 2.04-.14.62-.06.97-.09 1.14-.08s.37.07.56.15c-.1-.12-.2-.27-.31-.43-.34-.52-.73-1.11-1.5-1.12-.39-.01-.9.01-1.48.03-1.26.04-2.84.1-3.88-.05-1-.14-2.04-.54-2.91-1.08m-5.57-2.67c.54 0 1.05.02 1.51.13.57.14 1.63.65 2.48 1.16-.02-.02-.04-.05-.06-.07-.6-.68-1.23-1.37-2.58-2-1.38-.64-2.14-.6-3.01-.55-.23.01-.46.02-.71.02-.69 0-1.36-.19-2.01-.38-.54-.15-1.04-.3-1.52-.33-.47-.03-1.59.02-4.26.4l-.71.1c.15.17.27.42.39.7.15.32.37.8.56.79.18-.02.51-.11.9-.22 1.01-.28 2.39-.67 3.37-.4 1.31.36 3.18.56 4.08.62.39.03.79.02 1.17.02.13.01.27.01.4.01m-12.33-2.61c-.18.2-.31.39-.3.47.19.13.46.18.74.22.03.01.05.01.08.01z"/><path d="m135.37 198.74.56.07s1.06-.84 1.55-.84 1.12.56 1.12.56l1.13.77h.91s2.11 1.48 2.39 1.62 2.34 1.49 2.61 1.76.7.84 1.12 1.19 1.34.7 1.69.98 2.33 1.99 2.75 2.58.84 2.91.91 3.54.49 1.69.63 2.18.21.84.42 1.13c.21.28.76.99.76.99l.23.7-1.49.4-.55-.97s-.42-.49-.42-.7.12-.23-.15-.57-1.19-1.33-1.33-2.03-.77-4.5-1.2-5.2c-.42-.7-1.33-1.97-2.25-2.53-.91-.56-2.39-1.48-2.74-1.62s-.63-1.05-1.41-1.62c-.77-.56-2.81-1.55-2.81-1.55l-2.04.84s-.14.28-.63.42-.52-.07-.89-.28-.72-.07-.86-.35c-.15-.27-.01-1.47-.01-1.47"/><path d="m152.49 216.77-.68-1.2c-.19-.21-.46-.59-.46-.87 0-.08.01-.14.02-.2.01-.01-.01-.05-.1-.16-.04-.05-.1-.12-.17-.2-.41-.49-1.09-1.3-1.23-1.97-.02-.12-.06-.33-.11-.6-.2-1.09-.72-3.97-1.04-4.5-.39-.65-1.28-1.89-2.14-2.42l-.18-.11c-.83-.51-2.21-1.36-2.51-1.48-.26-.1-.42-.36-.63-.68s-.47-.71-.85-.98c-.63-.46-2.16-1.22-2.62-1.45l-1.81.75c-.11.14-.34.35-.76.47-.48.14-.71.01-.95-.17-.06-.04-.12-.09-.21-.14-.11-.06-.22-.08-.34-.1-.2-.03-.5-.08-.66-.4s-.09-1.19-.03-1.67l.04-.34.76.1c.36-.27 1.14-.83 1.65-.83.6 0 1.28.58 1.35.65l1 .69h.92l.09.06c.81.57 2.16 1.5 2.35 1.59.29.15 2.39 1.52 2.7 1.83.1.1.22.24.35.39.23.26.49.56.74.78.2.16.56.35.88.51s.61.32.8.47c.3.24 2.35 2 2.81 2.65.49.69.91 3.13.97 3.7.05.41.26 1.03.43 1.54.08.23.15.44.19.59l.06.23c.1.35.17.6.3.78.21.28.75.99.75.99l.05.1.34 1.04zm-4.51-11.81c.53.56 1 1.23 1.32 1.76.34.56.74 2.6 1.13 4.73.05.26.09.47.11.59.1.51.76 1.29 1.08 1.67.07.09.14.16.18.22.25.32.28.49.23.72 0 .02-.01.04-.01.07.02.05.18.29.34.48l.46.8.89-.24-.1-.3c-.12-.16-.55-.71-.72-.95-.22-.29-.3-.61-.42-1.01l-.06-.22c-.04-.14-.11-.34-.18-.56-.18-.53-.41-1.2-.46-1.68-.08-.75-.51-2.91-.85-3.38-.37-.52-2.27-2.18-2.68-2.51-.06-.07-.15-.13-.26-.19m-4.39-3.29c.09.12.17.24.24.35.11.16.25.38.32.42.24.1.86.46 1.66.95-.03-.03-.06-.07-.09-.1-.12-.14-.23-.27-.32-.36-.15-.16-1.11-.81-1.81-1.26m-7.91-1.6c.02 0 .09.01.15.02.15.02.36.06.57.18.12.07.2.13.28.19.15.11.15.12.35.06.32-.09.42-.25.43-.26l.06-.1.11-.06 1.67-.69-.89-.61c-.26-.22-.68-.5-.93-.5-.22 0-.87.4-1.33.77l-.11.09-.36-.04c-.04.45-.04.85 0 .95z"/><path d="m110.75 78.32c.49 11.34 1.37 37.83 1.37 37.83.41.22 21.58 17.29 30.34 24.35.58 3.84 1.73 20.75 1.73 20.75s17.49-.58 23.55-.28c8.32 6.78 15.93 13.01 16.27 13.31.73.67 1.72 2.23 2.36 3.01.54.66 1.59 1.73 2.3 3.71s.93 2.74 2.05 3.29c1.13.54 1.23 2.46-.61 3.57s-2.05 2.84-2.58 4.08c-.54 1.24.64 2.59.92 4.2.29 1.6-1.21 3.5-2.26 4.36-.77.63-.22 1.53.12 2.32s.33 2.31.35 2.81c.03.5.34.79 1.54.62 1.7.11 1.71 2.23 1.09 3.58s-1.03 1.32-2.04 1.02c-.75.04-.78.3-1.05.87 0 0-31.06 5.87-31.16 5.82-.21-.1-.32-.82-.55-.98-.18-.13-.3-.34-.39-.56l29.53-5.3s.25-.81.75-.93.93.25 1.49.12c.56-.12 1.18-1.55 1.18-2.61s-.58-2.18-1.22-2.08c-.65.09-1.08.03-1.33-.16s-.44-1.62-.5-2.18-.62-1.87-.69-2.37c-.06-.5.44-.99 1.18-1.74.75-.75 1.37-2.05 1.49-2.8s-1.06-3.48-1.12-3.98.62-2.74 1.31-3.67c.68-.93 2.43-1.87 2.68-2.61.25-.75.44-1.37-.12-1.8-.56-.44-1.87-1-2.43-1.37s-1.43-3.67-3.49-5.79c-2.05-2.12-1.18-1.87-4.48-4.54-3.3-2.68-13.63-11.05-13.63-11.05s-19.85.78-20.54.53c-.68-.25-1.55-18.18-1.55-18.18l-32.36-26.26-1.44-39.32z"/><path d="m154.96 217.86c-.04 0-.05-.01-.07-.01-.23-.11-.33-.38-.44-.66-.05-.12-.12-.32-.17-.37-.2-.14-.37-.38-.49-.7l-.16-.39 29.75-5.34c.13-.3.42-.84.92-.96.33-.08.62-.01.88.06.22.06.41.11.62.06.29-.06.92-1.21.92-2.28 0-.38-.09-.79-.23-1.11-.03-.05-.06-.1-.08-.16-.08-.15-.18-.28-.28-.37-.09-.08-.18-.11-.25-.1-.73.1-1.24.03-1.58-.22-.12-.09-.4-.3-.63-2.41-.03-.26-.2-.75-.35-1.19-.16-.46-.3-.89-.34-1.17-.08-.66.46-1.21 1.28-2.03.68-.68 1.28-1.92 1.4-2.62.07-.4-.43-1.8-.73-2.64-.23-.66-.37-1.04-.39-1.25-.08-.65.68-2.98 1.37-3.92.34-.46.89-.9 1.42-1.33.52-.41 1.11-.88 1.21-1.19.26-.78.34-1.16-.01-1.43-.29-.23-.86-.52-1.35-.77-.41-.21-.8-.41-1.06-.58-.28-.19-.5-.64-.93-1.58-.58-1.26-1.37-2.98-2.61-4.26-.76-.78-1.12-1.24-1.44-1.65-.54-.69-.94-1.19-3.01-2.87l-13.53-10.97c-4.82.19-19.85.76-20.54.51-.27-.1-.89-.33-1.77-18.33l-32.37-26.27-1.46-39.92 2.63.58.01.26c.46 10.75 1.29 35.41 1.36 37.67 1.33 1.01 9.97 7.95 24.98 20.04l5.34 4.3.02.13c.53 3.52 1.55 18.07 1.71 20.45 2.44-.08 17.7-.54 23.25-.27l.11.01.09.07c7.62 6.21 15.92 13 16.29 13.33.49.45 1.08 1.26 1.6 1.98.29.4.56.78.79 1.06l.2.23c.57.66 1.51 1.77 2.16 3.59l.1.29c.62 1.75.83 2.35 1.78 2.8.6.29.97.89 1.01 1.6.05.98-.55 1.94-1.59 2.56-1.35.81-1.74 1.96-2.12 3.06-.1.3-.21.59-.32.86-.28.65.02 1.38.37 2.23.23.56.46 1.13.57 1.77.31 1.75-1.25 3.76-2.38 4.69-.43.35-.29.79.1 1.64l.12.28c.31.72.35 1.91.37 2.62 0 .12.01.23.01.31 0 .06.01.1.02.13s.03.06.04.08l.03.03c.08.07.33.16 1.06.06h.03.03c.65.04 1.15.34 1.46.86.54.92.34 2.3-.08 3.2-.7 1.51-1.27 1.54-2.39 1.22-.41.03-.44.1-.63.51l-.15.32-.17.03c-28.11 5.34-30.93 5.84-31.31 5.84m-.31-1.61c.01.01.03.02.04.04.19.14.29.39.39.66.03.07.06.16.1.23 2.02-.34 20.66-3.85 30.78-5.76.24-.53.44-.86 1.27-.9h.06l.06.02c.89.26 1.1.32 1.64-.84.36-.77.51-1.9.12-2.57-.19-.32-.48-.49-.88-.52-.35.05-.65.06-.89.03.04.21.06.43.06.65 0 1.06-.61 2.76-1.45 2.95-.36.08-.67 0-.94-.07-.21-.06-.38-.1-.54-.06-.21.05-.42.45-.5.7l-.06.2-.2.04zm31.26-11.4c.14 0 .27.03.41.1-.03-.63-.09-1.49-.3-1.99l-.12-.26c-.33-.73-.79-1.73.09-2.45.97-.79 2.4-2.59 2.14-4.04-.1-.56-.32-1.1-.54-1.63-.39-.95-.76-1.85-.36-2.76.11-.25.2-.53.3-.82.38-1.11.86-2.48 2.42-3.42.82-.49 1.29-1.22 1.26-1.95-.02-.46-.25-.84-.62-1.02-1.2-.58-1.49-1.4-2.12-3.19l-.1-.29c-.61-1.7-1.47-2.71-2.03-3.37l-.21-.24c-.24-.29-.52-.68-.82-1.1-.5-.69-1.06-1.48-1.5-1.88-.31-.28-7.26-5.97-16.17-13.23-.63-.03-1.38-.05-2.21-.06l13.15 10.67c2.13 1.73 2.54 2.25 3.12 2.98.31.39.66.84 1.39 1.59 1.32 1.36 2.18 3.22 2.74 4.45.26.56.55 1.2.69 1.3.22.15.6.34.99.54.55.28 1.11.57 1.46.84.77.6.47 1.47.24 2.18-.17.5-.75.97-1.43 1.51-.5.4-1.01.81-1.29 1.19-.67.91-1.29 3.07-1.24 3.43.02.14.2.65.36 1.1.48 1.37.85 2.45.76 2.98-.13.81-.78 2.18-1.59 2.99-.63.63-1.13 1.13-1.09 1.46.03.2.17.62.31 1.03.18.52.34 1.01.38 1.34.12 1.1.29 1.83.39 1.97.08.05.35.17 1.05.07 0-.02.04-.02.09-.02m-75.32-87.8 31.81 25.81c-.09-.9-.18-1.65-.25-2.18l-5.13-4.13c-9.17-7.39-24.52-19.75-25.06-20.1l-.15-.1-.02-.18c-.01-.26-.87-26.21-1.36-37.56l-1.26-.28z"/><path d="m108.55 70.86c.35-.02 1.68 1.72 1.92 2.41.01.04.03.21.05.51l-1.87-.05z"/><path d="m110.89 74.13-2.56-.07-.13-3.53.33-.02h.02c.67 0 2.04 2.05 2.24 2.64.02.06.04.14.07.6zm-1.9-.73 1.17.03c0-.03-.01-.05-.01-.07-.15-.41-.77-1.28-1.22-1.79z"/></svg>